<?xml version="1.0" encoding="UTF-8" standalone="no"?>
<!DOCTYPE svg PUBLIC "-//W3C//DTD SVG 1.1//EN" "http://www.w3.org/Graphics/SVG/1.1/DTD/svg11.dtd">
<svg xmlns="http://www.w3.org/2000/svg" version="1.1" viewBox="0.00 0.00 300.00 251.00">
<g stroke-width="2.00" fill="none" stroke-linecap="butt">
<path stroke="#3c8599" vector-effect="non-scaling-stroke" d="
  M 136.51 53.58
  Q 137.53 50.88 140.04 49.58
  C 145.53 46.74 149.18 38.63 144.45 33.28
  Q 142.00 30.50 135.05 26.12
  C 133.57 25.19 132.01 25.28 130.47 24.47
  C 128.14 23.26 124.00 21.59 121.48 21.35
  C 117.84 21.00 114.24 19.56 111.13 19.06
  C 92.16 16.04 72.61 15.00 53.55 17.71
  Q 47.87 18.52 39.44 19.47
  C 31.41 20.38 23.06 23.84 16.23 28.87
  Q 13.81 30.66 11.11 32.31"
/>
<path stroke="#2b5e6e" vector-effect="non-scaling-stroke" d="
  M 52.94 12.73
  Q 51.65 13.98 48.84 14.14
  Q 48.18 14.17 48.49 14.75
  L 48.75 15.23
  Q 48.99 15.69 49.52 15.67
  C 55.73 15.46 62.05 13.69 67.70 13.47
  Q 83.92 12.83 92.45 13.39
  Q 105.43 14.25 112.94 16.11
  C 117.18 17.16 121.41 17.49 124.91 18.67
  C 136.35 22.50 148.58 27.10 150.24 40.98
  Q 150.41 42.45 148.51 43.92
  Q 148.16 44.20 148.59 44.30
  Q 148.81 44.35 148.98 44.22
  C 152.57 41.42 154.02 37.37 152.45 32.95
  C 147.08 17.84 109.77 12.48 96.00 11.78
  Q 92.93 11.63 87.41 11.09
  C 81.38 10.52 75.62 11.52 70.24 11.73
  Q 67.51 11.83 63.34 12.41
  Q 59.52 12.93 55.92 12.39"
/>
<path stroke="#3c8599" vector-effect="non-scaling-stroke" d="
  M 146.29 89.98
  C 143.98 87.43 148.00 86.62 147.78 84.01
  A 1.33 1.28 -33.1 0 1 147.96 83.22
  C 150.47 79.02 149.12 70.01 148.58 65.31
  A 0.76 0.75 72.8 0 0 147.48 64.73
  C 136.01 70.73 124.49 75.53 112.38 77.45
  C 110.86 77.69 109.65 78.43 108.02 78.52
  C 101.28 78.86 94.77 80.52 88.00 80.54
  C 78.86 80.58 69.11 81.40 60.10 80.03
  C 54.00 79.11 47.83 78.80 42.01 77.41
  Q 37.27 76.29 32.54 75.17
  C 29.14 74.37 25.40 72.59 21.62 71.77
  C 18.84 71.17 14.12 69.36 12.26 67.14
  A 0.65 0.65 0.0 0 0 11.11 67.49
  Q 11.06 68.01 10.76 68.53"
/>
<path stroke="#2b5e6e" vector-effect="non-scaling-stroke" d="
  M 71.33 116.38
  C 65.29 117.52 59.74 116.13 54.52 115.47
  C 40.38 113.70 24.93 109.49 12.55 102.25
  Q 11.84 101.84 11.89 102.65
  L 12.10 106.01
  Q 12.14 106.52 12.60 106.73
  Q 19.42 109.88 26.76 111.49
  C 27.89 111.74 29.36 112.86 30.84 113.24
  Q 42.74 116.30 54.89 118.03
  C 59.15 118.63 63.87 118.61 68.39 118.92
  C 76.60 119.49 83.86 119.36 91.64 119.14
  C 100.05 118.90 108.93 117.11 117.67 116.16
  C 119.03 116.01 120.77 114.78 121.76 114.78
  Q 124.47 114.77 126.96 113.87
  C 130.19 112.70 133.32 112.64 136.25 110.54
  Q 136.64 110.26 137.13 110.26
  Q 138.08 110.27 138.77 109.48
  A 0.42 0.42 0.0 0 0 138.33 108.80
  Q 134.69 109.85 130.94 111.20
  Q 128.44 112.09 126.99 111.30"
/>
<path stroke="#2b5e6e" vector-effect="non-scaling-stroke" d="
  M 149.48 102.37
  Q 150.45 103.46 148.40 103.88
  Q 147.78 104.01 148.24 104.43
  C 148.78 104.94 149.01 105.31 149.11 106.09
  C 149.94 112.29 151.89 125.86 145.36 129.70"
/>
<path stroke="#3c8599" vector-effect="non-scaling-stroke" d="
  M 145.36 129.70
  Q 145.08 129.94 144.77 129.97
  A 0.42 0.42 0.0 0 1 144.35 129.36
  Q 147.11 123.66 146.96 121.76
  Q 146.47 115.29 146.94 109.25
  A 0.86 0.86 0.0 0 0 145.61 108.46
  Q 138.76 112.91 130.85 114.97
  C 127.10 115.95 123.93 118.12 119.45 118.00
  Q 118.95 117.98 118.51 118.20
  C 113.64 120.55 107.53 120.29 101.53 121.19
  C 99.64 121.48 96.90 122.57 94.41 122.41
  C 82.43 121.62 70.21 122.56 58.13 122.16
  Q 57.79 122.15 57.61 121.86
  Q 57.50 121.68 57.34 121.55
  Q 57.13 121.37 56.71 121.33
  Q 43.01 120.10 29.86 116.31
  C 24.55 114.78 19.11 112.12 13.70 109.95
  Q 13.21 109.75 12.99 109.26
  Q 12.60 108.38 11.72 108.00
  Q 11.25 107.80 11.27 108.31
  Q 11.30 109.36 10.73 109.26"
/>
<path stroke="#53609c" vector-effect="non-scaling-stroke" d="
  M 126.10 140.98
  Q 125.18 141.14 123.65 140.66"
/>
<path stroke="#7188b1" vector-effect="non-scaling-stroke" d="
  M 123.65 140.66
  Q 123.78 136.41 123.93 132.06
  C 123.94 131.74 123.74 131.39 123.51 131.22"
/>
<path stroke="#6578a9" vector-effect="non-scaling-stroke" d="
  M 123.51 131.22
  Q 122.70 129.88 121.55 130.33"
/>
<path stroke="#53609c" vector-effect="non-scaling-stroke" d="
  M 121.55 130.33
  C 116.48 126.85 107.05 125.29 101.66 125.02"
/>
<path stroke="#6578a9" vector-effect="non-scaling-stroke" d="
  M 101.66 125.02
  L 91.50 124.95"
/>
<path stroke="#53609c" vector-effect="non-scaling-stroke" d="
  M 91.50 124.95
  Q 82.96 125.47 75.84 130.24
  C 74.25 131.31 71.68 133.34 70.80 135.09
  A 1.44 1.41 -89.1 0 1 70.14 135.74
  Q 68.46 136.53 69.05 138.81"
/>
<path stroke="#445a87" vector-effect="non-scaling-stroke" d="
  M 69.05 138.81
  Q 68.28 138.45 67.51 141.26"
/>
<path stroke="#53609c" vector-effect="non-scaling-stroke" d="
  M 67.51 141.26
  Q 66.81 140.71 66.23 141.30"
/>
<path stroke="#3c8599" vector-effect="non-scaling-stroke" d="
  M 66.23 141.30
  Q 65.72 141.59 65.41 141.32
  Q 64.97 140.93 65.46 140.60
  C 67.06 139.56 67.43 138.57 67.84 136.79
  Q 68.10 135.65 69.33 135.20
  Q 69.83 135.01 69.86 134.48
  Q 69.97 132.88 71.47 132.23
  A 0.44 0.44 0.0 0 0 71.38 131.40
  Q 70.89 131.31 70.45 131.72
  C 68.49 133.53 66.03 134.50 64.47 136.40
  Q 61.52 139.98 60.38 144.85"
/>
<path stroke="#306c7d" vector-effect="non-scaling-stroke" d="
  M 154.07 103.26
  Q 154.20 102.53 153.41 103.28
  A 1.10 1.08 68.9 0 0 153.08 104.04
  Q 152.88 111.62 153.02 119.21
  C 153.06 121.85 152.14 123.67 151.12 126.00
  Q 150.92 126.46 150.56 126.81
  L 146.90 130.50
  A 0.83 0.82 -32.1 0 1 145.53 130.19
  L 145.36 129.70"
/>
<path stroke="#8355a5" vector-effect="non-scaling-stroke" d="
  M 121.55 130.33
  L 109.23 126.38"
/>
<path stroke="#401d5b" vector-effect="non-scaling-stroke" d="
  M 67.83 142.09
  Q 62.69 156.18 69.73 168.99
  C 70.33 170.07 71.35 170.45 71.96 171.63
  Q 72.19 172.06 72.62 172.28
  Q 74.55 173.28 75.85 174.88"
/>
<path stroke="#53609c" vector-effect="non-scaling-stroke" d="
  M 75.85 174.88
  Q 72.65 175.64 72.03 172.82
  Q 71.91 172.31 71.43 172.08
  L 70.84 171.79
  Q 70.47 171.62 70.23 171.28
  C 67.72 167.64 65.79 164.46 64.88 159.53"
/>
<path stroke="#4e528d" vector-effect="non-scaling-stroke" d="
  M 64.88 159.53
  Q 65.43 157.90 62.82 157.49"
/>
<path stroke="#4e528d" vector-effect="non-scaling-stroke" d="
  M 66.23 141.30
  L 65.99 144.14
  A 0.92 0.91 -9.5 0 1 65.45 144.89
  Q 64.79 145.18 63.81 145.02"
/>
<path stroke="#311647" vector-effect="non-scaling-stroke" d="
  M 108.74 202.73
  Q 108.64 203.39 109.51 203.24
  A 0.98 0.98 0.0 0 0 110.25 202.68
  C 113.51 195.73 111.43 189.32 104.93 185.58
  C 102.82 184.37 100.81 182.34 98.12 182.49
  Q 97.63 182.51 97.23 182.24
  C 94.31 180.24 91.36 180.16 88.34 178.36
  Q 88.05 178.19 87.71 178.24
  C 87.32 178.30 87.07 178.29 86.70 178.09
  Q 77.71 173.28 75.23 170.77
  C 67.51 162.96 67.34 152.38 69.22 142.36
  A 0.54 0.54 0.0 0 0 68.57 141.74
  Q 68.19 141.83 67.83 142.09"
/>
<path stroke="#56277c" vector-effect="non-scaling-stroke" d="
  M 67.83 142.09
  Q 66.78 140.84 67.51 141.26"
/>
<path stroke="#946db2" vector-effect="non-scaling-stroke" d="
  M 121.55 130.33
  Q 122.03 131.22 123.51 131.22"
/>
<path stroke="#946db2" vector-effect="non-scaling-stroke" d="
  M 123.25 146.80
  Q 122.76 146.74 122.61 146.48"
/>
<path stroke="#77459d" vector-effect="non-scaling-stroke" d="
  M 91.50 124.95
  Q 89.60 126.43 86.78 125.92
  A 0.48 0.48 0.0 0 0 86.23 126.49
  L 86.92 130.08
  Q 87.06 130.81 87.80 130.74
  C 95.96 129.94 102.91 129.20 110.99 131.29
  Q 111.47 131.42 112.03 132.18
  Q 112.36 132.61 112.89 132.53
  Q 117.17 131.94 119.40 135.45
  Q 119.68 135.88 119.57 136.39
  C 118.72 140.41 118.61 143.74 122.19 146.05"
/>
<path stroke="#8355a5" vector-effect="non-scaling-stroke" d="
  M 122.19 146.05
  L 122.61 146.48"
/>
<path stroke="#77459d" vector-effect="non-scaling-stroke" d="
  M 122.61 146.48
  Q 122.43 148.19 123.12 149.19
  Q 123.68 150.00 123.72 149.02
  Q 123.75 148.05 123.25 146.80"
/>
<path stroke="#8355a5" vector-effect="non-scaling-stroke" d="
  M 123.25 146.80
  L 123.65 140.66"
/>
<path stroke="#b296c8" vector-effect="non-scaling-stroke" d="
  M 123.99 152.46
  L 121.98 152.77
  A 0.81 0.79 -35.1 0 1 121.49 152.69
  L 110.27 146.62
  Q 109.80 146.37 109.29 146.47
  C 107.68 146.76 106.75 145.73 105.50 145.51
  C 99.90 144.53 82.52 143.71 88.55 155.45
  A 1.54 1.48 -0.0 0 0 89.24 156.11
  L 92.59 157.67"
/>
<path stroke="#53609c" vector-effect="non-scaling-stroke" d="
  M 92.59 157.67
  L 91.97 160.46"
/>
<path stroke="#9168b0" vector-effect="non-scaling-stroke" d="
  M 91.97 160.46
  Q 85.11 158.80 84.48 152.10"
/>
<path stroke="#77459d" vector-effect="non-scaling-stroke" d="
  M 84.48 152.10
  Q 84.61 148.40 86.55 145.88
  Q 86.78 145.58 86.50 145.33
  Q 84.17 143.27 82.55 145.73
  Q 79.86 149.79 80.33 154.42
  Q 80.38 154.89 80.73 155.21
  C 82.01 156.38 82.38 158.13 83.37 159.18
  Q 85.72 161.70 88.46 163.77
  Q 88.84 164.06 89.31 164.15
  Q 91.22 164.50 92.73 165.75
  Q 93.16 166.11 93.71 166.25
  Q 95.55 166.70 97.03 167.95
  Q 97.41 168.27 97.90 168.25
  C 100.90 168.13 104.40 170.65 107.28 171.63
  C 114.99 174.24 121.29 180.91 122.98 188.93
  Q 125.54 201.04 119.76 211.77
  C 119.16 212.89 117.69 213.54 118.43 215.33
  A 0.76 0.76 0.0 0 0 119.22 215.79
  L 120.79 215.57
  A 0.32 0.32 0.0 0 1 121.13 216.00
  Q 120.33 218.03 118.07 218.84"
/>
<path stroke="#56277c" vector-effect="non-scaling-stroke" d="
  M 118.07 218.84
  C 113.63 217.02 110.99 219.02 107.28 219.54
  C 103.89 220.01 100.59 220.75 97.22 220.77
  Q 91.32 220.80 85.46 220.60
  C 81.89 220.48 69.00 218.17 70.17 212.62
  Q 70.28 212.12 70.16 211.62
  Q 69.42 208.50 70.03 206.14"
/>
<path stroke="#77459d" vector-effect="non-scaling-stroke" d="
  M 70.03 206.14
  Q 76.88 211.89 85.01 212.99
  C 91.86 213.92 96.20 215.31 102.44 212.85
  A 0.96 0.95 56.8 0 0 102.76 211.29
  Q 101.36 209.87 102.65 208.64
  A 0.39 0.39 0.0 0 0 102.28 207.98
  C 97.76 209.23 93.56 209.61 87.23 208.63"
/>
<path stroke="#8355a5" vector-effect="non-scaling-stroke" d="
  M 87.23 208.63
  Q 76.31 205.84 67.28 198.94
  A 0.12 0.12 0.0 0 0 67.09 198.99
  Q 67.02 199.17 66.99 199.34
  A 0.71 0.70 32.4 0 0 67.12 199.92
  L 69.31 202.71"
/>
<path stroke="#77459d" vector-effect="non-scaling-stroke" d="
  M 69.31 202.71
  Q 68.81 203.09 69.47 204.92"
/>
<path stroke="#56277c" vector-effect="non-scaling-stroke" d="
  M 69.47 204.92
  L 67.52 203.14"
/>
<path stroke="#401d5b" vector-effect="non-scaling-stroke" d="
  M 67.52 203.14
  L 66.70 202.09
  Q 65.75 200.90 65.75 202.42
  L 65.75 217.79
  Q 65.75 218.31 66.21 218.54
  Q 83.18 227.01 102.27 224.58"
/>
<path stroke="#56277c" vector-effect="non-scaling-stroke" d="
  M 102.27 224.58
  Q 109.39 224.08 115.91 220.33"
/>
<path stroke="#77459d" vector-effect="non-scaling-stroke" d="
  M 115.91 220.33
  Q 115.95 220.58 115.98 220.76
  Q 116.06 221.19 116.44 220.97
  Q 125.44 215.82 127.27 205.81"
/>
<path stroke="#9168b0" vector-effect="non-scaling-stroke" d="
  M 127.27 205.81
  Q 129.97 193.44 125.67 181.75"
/>
<path stroke="#53609c" vector-effect="non-scaling-stroke" d="
  M 125.67 181.75
  L 128.70 182.00"
/>
<path stroke="#53609c" vector-effect="non-scaling-stroke" d="
  M 97.13 187.54
  C 97.55 183.27 92.16 185.25 90.02 182.46
  A 1.36 1.34 -12.6 0 0 89.20 181.95
  C 86.21 181.38 77.68 178.52 76.01 175.24"
/>
<path stroke="#401d5b" vector-effect="non-scaling-stroke" d="
  M 76.01 175.24
  C 76.64 175.24 77.01 175.13 77.57 175.49
  Q 85.48 180.49 94.36 183.31
  C 103.60 186.25 112.72 191.28 108.74 202.73"
/>
<path stroke="#56277c" vector-effect="non-scaling-stroke" d="
  M 108.74 202.73
  L 107.63 203.03
  Q 107.06 203.18 107.09 203.77
  Q 107.25 206.15 104.99 207.28
  A 0.27 0.26 28.5 0 0 105.14 207.78
  C 110.33 207.21 111.26 204.61 113.22 200.56
  C 114.99 196.90 112.87 191.94 110.55 188.71
  Q 105.71 181.95 98.34 179.88
  C 96.64 179.41 94.85 178.44 92.76 178.36
  Q 92.25 178.35 91.84 178.03
  C 89.17 175.99 85.76 174.95 83.38 173.58
  C 80.18 171.74 76.32 169.86 74.15 167.03
  C 69.39 160.82 69.57 151.33 71.45 143.93
  C 72.75 138.77 78.51 134.66 81.52 130.46
  A 0.72 0.72 0.0 0 0 80.67 129.37
  C 78.42 130.26 76.16 130.88 74.40 132.69
  Q 71.61 135.56 69.05 138.81"
/>
<path stroke="#77459d" vector-effect="non-scaling-stroke" d="
  M 101.66 125.02
  L 109.23 126.38"
/>
<path stroke="#946db2" vector-effect="non-scaling-stroke" d="
  M 109.23 126.38
  Q 107.84 126.45 108.04 126.95
  C 108.96 129.22 113.96 130.61 116.12 131.24
  Q 116.65 131.40 117.06 131.76
  L 119.68 134.06
  Q 120.07 134.40 120.14 134.90
  C 120.54 137.58 119.99 140.44 120.86 142.84
  Q 121.45 144.47 122.19 146.05"
/>
<path stroke="#3c8599" vector-effect="non-scaling-stroke" d="
  M 64.88 159.53
  Q 64.69 159.13 63.92 159.28"
/>
<path stroke="#2b5e6e" vector-effect="non-scaling-stroke" d="
  M 63.92 159.28
  Q 63.91 158.73 62.99 158.61
  C 45.54 156.44 28.12 153.24 12.80 144.13
  Q 12.05 143.69 11.94 144.54
  L 11.78 145.74
  Q 11.70 146.32 12.23 146.57
  Q 16.97 148.87 21.77 151.05
  C 26.22 153.08 31.21 153.97 36.01 155.53
  C 40.10 156.87 44.14 156.93 48.34 157.82
  C 53.34 158.88 60.30 157.66 62.46 163.80
  C 64.58 169.81 65.60 172.54 70.14 176.17
  Q 70.52 176.47 70.61 176.93
  Q 70.74 177.62 71.39 177.69
  Q 71.90 177.75 72.33 178.05
  Q 78.95 182.79 86.88 184.59
  Q 87.38 184.71 87.38 185.23
  Q 87.37 187.20 90.50 186.88"
/>
<path stroke="#3c8599" vector-effect="non-scaling-stroke" d="
  M 90.50 186.88
  Q 87.50 187.17 84.59 186.18
  C 81.04 184.97 78.84 186.02 75.30 183.76
  Q 73.25 182.46 71.04 181.46
  C 66.12 179.26 61.17 173.46 59.76 168.22
  Q 59.38 166.81 57.85 163.85
  Q 57.62 163.41 57.14 163.30
  C 47.39 161.05 36.95 159.70 25.75 156.74
  C 23.64 156.19 21.02 154.39 18.20 153.46
  Q 14.48 152.24 11.03 149.83"
/>
<path stroke="#2e5067" vector-effect="non-scaling-stroke" d="
  M 76.01 175.24
  Q 75.74 174.95 75.85 174.88"
/>
<path stroke="#9168b0" vector-effect="non-scaling-stroke" d="
  M 92.30 160.99
  Q 99.20 164.02 106.36 166.45
  Q 106.71 166.57 107.66 167.14
  Q 108.63 167.72 109.30 167.02"
/>
<path stroke="#9168b0" vector-effect="non-scaling-stroke" d="
  M 110.39 167.75
  L 118.21 172.67"
/>
<path stroke="#a280bd" vector-effect="non-scaling-stroke" d="
  M 118.21 172.67
  L 124.41 179.14"
/>
<path stroke="#a280bd" vector-effect="non-scaling-stroke" d="
  M 84.48 152.10
  Q 84.17 150.79 83.46 150.69
  A 0.67 0.67 0.0 0 0 82.71 151.21
  Q 81.80 155.72 84.89 158.92
  C 86.20 160.28 90.28 162.99 91.97 163.59
  C 98.51 165.93 105.89 168.10 111.76 171.86
  C 115.90 174.52 118.80 175.79 121.75 180.72
  C 122.40 181.81 122.23 182.98 123.45 183.90
  Q 123.80 184.16 123.93 184.58
  Q 127.00 194.32 125.41 204.49
  A 0.92 0.89 27.4 0 0 125.67 205.27
  Q 126.22 205.84 127.27 205.81"
/>
<path stroke="#683f89" vector-effect="non-scaling-stroke" d="
  M 115.91 220.33
  L 118.07 218.84"
/>
<path stroke="#683f89" vector-effect="non-scaling-stroke" d="
  M 70.03 206.14
  Q 69.78 205.18 69.47 204.92"
/>
<path stroke="#a0c9d3" vector-effect="non-scaling-stroke" d="
  M 124.52 154.08
  Q 123.57 154.33 123.83 154.48"
/>
<path stroke="#8fa2a9" vector-effect="non-scaling-stroke" d="
  M 123.83 154.48
  L 115.69 155.51"
/>
<path stroke="#a0c9d3" vector-effect="non-scaling-stroke" d="
  M 115.69 155.51
  C 108.50 156.87 101.45 157.33 94.16 158.16
  C 93.47 158.24 93.15 157.98 92.59 157.67"
/>
<path stroke="#7f9bbc" vector-effect="non-scaling-stroke" d="
  M 125.67 181.75
  Q 124.76 180.55 124.41 179.14"
/>
<path stroke="#6578a9" vector-effect="non-scaling-stroke" d="
  M 124.41 179.14
  Q 122.77 174.82 118.21 172.67"
/>
<path stroke="#53609c" vector-effect="non-scaling-stroke" d="
  M 118.21 172.67
  L 118.11 172.17
  Q 118.01 171.70 117.59 171.48
  L 110.39 167.75"
/>
<path stroke="#7f9bbc" vector-effect="non-scaling-stroke" d="
  M 110.39 167.75
  Q 110.03 167.33 109.30 167.02"
/>
<path stroke="#53609c" vector-effect="non-scaling-stroke" d="
  M 109.30 167.02
  Q 108.61 165.79 107.08 165.99
  Q 106.54 166.07 106.13 165.72
  Q 105.14 164.87 103.84 165.00
  Q 103.38 165.05 103.02 164.74
  Q 101.15 163.09 98.69 162.93
  Q 98.21 162.90 97.85 162.59
  Q 95.20 160.32 92.30 160.99"
/>
<path stroke="#7f9bbc" vector-effect="non-scaling-stroke" d="
  M 92.30 160.99
  L 91.97 160.46"
/>
<path stroke="#306c7d" vector-effect="non-scaling-stroke" d="
  M 115.69 155.51
  Q 115.30 156.74 114.03 156.48
  Q 111.97 156.06 110.55 157.37
  Q 110.20 157.70 109.72 157.72
  L 104.44 157.85
  A 0.52 0.52 0.0 0 0 104.20 157.93
  Q 102.30 159.33 100.18 158.33
  A 1.30 1.28 -40.8 0 0 99.25 158.27
  Q 96.77 159.03 94.27 158.42
  A 0.88 0.87 -63.2 0 0 93.39 158.71
  L 93.01 159.18
  Q 92.51 159.79 93.30 159.84
  Q 95.39 159.97 98.56 160.97
  Q 99.07 161.13 99.44 160.69
  A 1.11 1.09 18.4 0 1 100.24 160.30
  C 103.54 160.21 107.68 160.24 110.76 158.99
  C 112.74 158.18 115.57 158.52 117.14 158.18
  Q 126.18 156.23 135.23 153.49
  A 1.55 1.54 73.2 0 1 137.15 154.52
  Q 137.89 156.93 136.92 159.72"
/>
<path stroke="#3c8599" vector-effect="non-scaling-stroke" d="
  M 136.92 159.72
  C 135.21 163.03 136.19 171.06 136.53 174.32"
/>
<path stroke="#306c7d" vector-effect="non-scaling-stroke" d="
  M 136.53 174.32
  L 136.03 177.36
  A 0.42 0.42 0.0 0 0 136.61 177.81
  L 139.49 176.56
  A 0.85 0.84 78.4 0 0 140.00 175.78
  Q 140.01 168.42 139.99 161.04
  C 139.99 158.63 141.29 156.75 141.18 154.08
  Q 141.16 153.52 141.55 153.11
  Q 142.29 152.32 141.95 151.21
  A 0.68 0.68 0.0 0 1 142.23 150.44
  Q 143.26 149.76 142.85 148.68
  Q 142.57 147.91 142.28 148.68
  Q 142.23 148.80 142.19 148.92
  Q 142.02 149.34 141.59 149.45
  C 137.40 150.51 133.43 152.59 129.47 153.43
  Q 126.60 154.04 123.83 154.48"
/>
<path stroke="#311647" vector-effect="non-scaling-stroke" d="
  M 67.52 203.14
  C 68.26 208.54 66.33 216.65 72.70 219.05
  Q 76.58 220.51 80.51 221.82
  C 87.25 224.07 93.35 223.47 101.00 223.48
  Q 102.37 223.48 102.27 224.58"
/>
<path stroke="#946db2" vector-effect="non-scaling-stroke" d="
  M 87.23 208.63
  Q 87.16 209.80 85.94 210.51
  Q 85.51 210.77 85.03 210.59
  C 82.38 209.58 79.87 209.50 77.46 208.01
  C 75.02 206.50 70.82 205.04 69.31 202.71"
/>
<path stroke="#306c7d" vector-effect="non-scaling-stroke" d="
  M 63.92 159.28
  C 64.22 164.58 66.24 167.84 69.43 172.51
  Q 69.68 172.87 70.09 173.04
  C 71.46 173.61 72.08 175.79 73.47 176.89
  Q 73.68 177.06 73.81 176.83
  L 74.19 176.20
  A 0.38 0.38 0.0 0 1 74.81 176.15
  C 75.89 177.44 76.70 178.41 78.32 179.10
  C 80.87 180.17 85.67 183.06 88.24 183.04
  A 0.98 0.95 -17.1 0 1 89.06 183.46
  Q 90.36 185.39 92.64 184.98
  Q 93.19 184.89 93.61 185.27
  Q 94.36 185.98 95.36 186.11
  A 0.40 0.40 0.0 0 1 95.31 186.90
  L 90.50 186.88"
/>
<path stroke="#2b5e6e" vector-effect="non-scaling-stroke" d="
  M 136.53 174.32
  L 136.92 159.72"
/>
<path stroke="#2e5067" vector-effect="non-scaling-stroke" d="
  M 141.52 176.37
  L 141.62 166.79"
/>
<path stroke="#53609c" vector-effect="non-scaling-stroke" d="
  M 138.92 177.99
  L 141.52 176.37"
/>
<path stroke="#401d5b" vector-effect="non-scaling-stroke" d="
  M 141.52 176.37
  C 142.11 198.93 148.17 226.93 177.23 225.22
  C 178.96 225.11 179.89 227.46 180.80 228.39
  Q 186.21 233.97 191.17 240.03
  Q 192.00 241.04 192.65 241.01
  Q 193.54 240.97 194.34 239.68"
/>
<path stroke="#56277c" vector-effect="non-scaling-stroke" d="
  M 194.34 239.68
  Q 195.41 239.89 195.54 238.59
  Q 195.60 238.02 195.12 237.72
  Q 193.81 236.90 193.41 235.45
  Q 193.26 234.94 192.86 234.60
  Q 188.27 230.65 184.25 226.14
  Q 181.96 223.57 180.01 222.76
  C 173.79 220.17 166.40 222.87 160.91 217.49
  Q 159.74 216.35 158.36 215.43
  Q 157.94 215.16 157.73 214.70
  C 156.98 213.08 155.36 212.37 154.53 211.14
  C 149.27 203.35 147.19 195.67 146.62 186.33
  Q 145.91 174.83 146.52 163.31
  C 146.66 160.74 147.48 157.77 147.53 154.85
  C 147.58 151.42 149.18 147.14 151.13 144.38
  C 152.33 142.68 152.44 140.12 152.95 138.77
  Q 154.69 134.19 159.17 131.55
  A 0.43 0.43 0.0 0 0 158.96 130.75
  L 158.18 130.75
  Q 157.62 130.75 157.23 131.15
  L 152.10 136.43"
/>
<path stroke="#401d5b" vector-effect="non-scaling-stroke" d="
  M 152.10 136.43
  C 144.66 145.06 143.25 155.34 141.62 166.79"
/>
<path stroke="#53609c" vector-effect="non-scaling-stroke" d="
  M 141.62 166.79
  C 140.61 161.96 141.64 154.04 144.05 149.85
  A 0.89 0.87 40.9 0 0 143.97 148.87
  Q 143.33 148.07 142.37 147.86"
/>
<path stroke="#311647" vector-effect="non-scaling-stroke" d="
  M 194.34 239.68
  Q 189.11 233.14 183.42 226.81
  Q 180.27 223.31 174.49 223.55
  Q 169.59 223.77 164.34 221.34
  C 151.53 215.40 146.02 200.52 144.82 187.50
  C 143.58 174.05 144.17 159.07 147.99 145.66
  C 148.61 143.51 150.06 141.61 151.00 139.49
  A 1.90 1.81 85.6 0 1 151.62 138.73
  Q 153.12 137.65 152.10 136.43"
/>
<path stroke="#2b5e6e" vector-effect="non-scaling-stroke" d="
  M 19.00 66.38
  Q 19.18 66.69 19.51 66.75
  C 22.56 67.35 24.81 68.89 27.50 69.49
  C 31.41 70.35 35.34 72.18 38.92 72.88
  C 55.59 76.16 72.66 78.06 89.68 77.27
  Q 89.99 77.25 90.14 76.98
  Q 90.23 76.81 90.33 76.68
  Q 90.58 76.36 90.18 76.36
  Q 68.16 75.99 46.47 72.22
  C 34.46 70.14 22.45 66.39 12.36 59.94
  Q 11.75 59.55 11.75 60.27
  L 11.75 62.74
  Q 11.75 63.20 12.21 63.25
  C 13.62 63.41 14.51 64.49 15.41 64.87
  Q 16.83 65.47 18.34 65.88
  Q 18.77 66.00 19.00 66.38"
/>
<path stroke="#2b5e6e" vector-effect="non-scaling-stroke" d="
  M 153.12 76.05
  C 152.79 70.79 152.90 66.69 153.31 61.76
  Q 153.52 59.22 151.13 59.97
  A 1.69 1.69 0.0 0 0 150.38 62.71
  L 150.96 63.36
  Q 151.29 63.73 151.34 64.24
  Q 152.18 74.23 150.27 84.04
  A 0.46 0.46 0.0 0 0 151.12 84.35
  Q 153.40 80.41 153.12 76.05"
/>
<path stroke="#9168b0" vector-effect="non-scaling-stroke" d="
  M 205.39 230.53
  L 195.15 220.32"
/>
<path stroke="#77459d" vector-effect="non-scaling-stroke" d="
  M 195.15 220.32
  Q 195.21 220.10 195.25 219.92
  A 1.03 1.00 -12.8 0 1 195.64 219.32
  Q 199.82 216.25 202.18 212.40"
/>
<path stroke="#8355a5" vector-effect="non-scaling-stroke" d="
  M 202.18 212.40
  C 206.86 201.78 209.27 191.68 209.14 180.01"
/>
<path stroke="#9168b0" vector-effect="non-scaling-stroke" d="
  M 209.14 180.01
  C 210.22 161.83 207.99 140.35 191.55 129.33"
/>
<path stroke="#8355a5" vector-effect="non-scaling-stroke" d="
  M 191.55 129.33
  Q 184.30 125.72 175.75 125.45"
/>
<path stroke="#77459d" vector-effect="non-scaling-stroke" d="
  M 175.75 125.45
  Q 167.09 125.44 158.81 129.33
  Q 158.61 129.42 158.54 129.63
  A 0.20 0.20 0.0 0 0 158.79 129.89
  L 164.53 127.78
  A 0.52 0.52 0.0 0 1 165.23 128.29
  Q 165.20 129.31 164.51 129.71
  A 1.05 1.04 -68.0 0 0 165.32 131.62
  C 170.54 130.09 176.15 129.82 181.63 131.19
  C 187.27 132.59 191.42 134.79 195.09 139.15
  C 201.87 147.19 204.47 160.49 204.37 170.76
  Q 204.37 170.89 204.49 170.92
  Q 204.63 170.96 204.76 171.00
  Q 204.99 171.07 204.95 171.30
  C 204.31 175.10 204.81 179.06 204.48 182.49
  C 204.10 186.45 204.12 190.47 203.19 194.18
  Q 201.76 199.92 199.48 205.38
  C 198.23 208.38 195.69 211.24 194.21 214.54
  Q 194.01 214.99 193.61 215.28
  C 185.09 221.43 197.36 230.23 201.68 233.97
  A 0.97 0.97 0.0 0 0 202.54 234.17
  Q 206.61 233.22 205.39 230.53"
/>
<path stroke="#946db2" vector-effect="non-scaling-stroke" d="
  M 175.75 125.45
  Q 175.15 127.31 175.78 128.34
  Q 176.03 128.74 176.49 128.62
  C 179.09 127.92 187.00 131.32 189.40 132.39
  Q 189.50 132.43 189.50 132.54
  L 189.50 133.10
  Q 189.50 133.43 189.78 133.60
  L 193.25 135.68
  Q 193.66 135.93 193.94 136.32
  Q 195.69 138.82 198.16 140.68
  Q 198.57 140.99 198.77 141.47
  C 199.71 143.82 200.85 145.66 201.46 148.13
  Q 202.30 151.52 203.26 154.89
  C 206.80 167.21 205.46 179.40 204.57 190.71
  Q 204.28 194.45 203.19 198.24
  C 202.25 201.46 201.55 204.73 200.58 207.96
  Q 199.60 211.28 202.18 212.40"
/>
<path stroke="#a280bd" vector-effect="non-scaling-stroke" d="
  M 195.15 220.32
  Q 194.85 220.19 194.51 220.27
  Q 193.99 220.38 193.89 220.91
  Q 193.64 222.32 194.52 223.12
  C 197.40 225.74 199.49 228.75 202.59 231.11
  A 2.96 2.95 59.0 0 0 204.85 231.68
  Q 205.30 231.62 205.39 230.53"
/>
<path stroke="#ae90c5" vector-effect="non-scaling-stroke" d="
  M 191.55 129.33
  Q 190.32 129.49 190.14 129.88
  A 1.48 1.47 -63.1 0 0 190.75 131.75
  C 195.71 134.63 197.66 138.42 200.87 142.95
  C 202.59 145.37 202.52 147.65 203.59 150.01
  C 204.86 152.84 205.11 154.63 205.29 157.39
  Q 205.32 157.84 205.66 158.12
  Q 206.27 158.61 206.23 159.50
  Q 206.10 162.71 206.94 166.50
  Q 207.60 169.48 207.37 178.69
  Q 207.34 179.48 208.60 179.94
  Q 208.68 179.97 208.70 179.89
  L 208.81 179.57
  A 0.07 0.07 0.0 0 1 208.94 179.57
  Q 209.05 179.96 209.14 180.01"
/>
<path stroke="#401d5b" vector-effect="non-scaling-stroke" d="
  M 173.41 143.20
  C 183.66 142.63 187.19 150.30 188.47 159.00
  C 190.31 171.42 191.27 190.04 185.66 201.30"
/>
<path stroke="#56277c" vector-effect="non-scaling-stroke" d="
  M 185.66 201.30
  Q 184.13 204.59 180.88 206.61
  Q 180.17 207.05 181.01 207.08
  C 187.27 207.32 188.82 203.10 191.14 197.96
  Q 192.36 195.26 192.95 191.74
  Q 195.80 174.67 192.91 159.26
  C 191.75 153.03 190.14 147.37 185.26 143.28
  C 180.95 139.67 173.83 137.02 170.56 143.53
  Q 170.35 143.94 170.81 143.95
  Q 172.06 143.98 173.41 143.20"
/>
<path stroke="#311647" vector-effect="non-scaling-stroke" d="
  M 185.66 201.30
  Q 186.12 202.95 187.36 201.10
  Q 187.73 200.56 188.02 199.74
  C 192.53 186.95 192.57 174.89 191.20 160.84
  C 190.39 152.42 187.91 144.43 179.27 141.89
  C 177.55 141.39 173.85 141.15 173.41 143.20"
/>
<path stroke="#9168b0" vector-effect="non-scaling-stroke" d="
  M 170.51 206.19
  Q 166.43 203.79 164.69 199.32
  C 160.11 187.56 160.77 169.13 163.30 156.02"
/>
<path stroke="#77459d" vector-effect="non-scaling-stroke" d="
  M 163.30 156.02
  Q 164.48 151.67 167.20 147.88
  A 0.62 0.62 0.0 0 0 166.63 146.90
  L 163.15 147.26
  Q 162.46 147.33 162.47 148.02
  Q 162.48 149.89 161.15 151.04
  Q 160.75 151.38 160.56 151.86
  Q 157.71 159.24 157.37 167.19
  C 156.82 179.98 156.25 193.17 163.34 204.94
  C 164.39 206.69 168.88 210.88 170.57 211.53
  C 172.78 212.39 179.53 213.57 177.87 208.57
  Q 177.71 208.07 178.18 207.85
  L 178.86 207.53
  A 0.33 0.33 0.0 0 0 178.65 206.91
  Q 174.38 207.83 170.51 206.19"
/>
<path stroke="#a280bd" vector-effect="non-scaling-stroke" d="
  M 163.30 156.02
  Q 162.97 155.42 162.27 155.20
  Q 161.79 155.05 161.57 155.51
  Q 160.32 158.12 160.21 161.02
  C 160.18 162.03 159.30 162.54 159.32 163.69
  Q 159.54 173.94 159.26 184.20
  Q 159.19 186.87 159.86 189.72
  C 161.64 197.35 162.16 204.15 169.53 208.41
  Q 169.99 208.68 170.26 208.22
  Q 170.79 207.34 170.51 206.19"
/>
<path stroke="#56277c" vector-effect="non-scaling-stroke" d="
  M 229.44 127.42
  Q 227.69 128.95 227.80 129.74"
/>
<path stroke="#401d5b" vector-effect="non-scaling-stroke" d="
  M 227.80 129.74
  L 227.76 222.58
  Q 227.76 223.17 228.35 223.22
  C 230.35 223.40 232.96 222.91 234.42 222.93
  Q 263.95 223.29 280.31 223.24
  Q 282.62 223.23 284.67 222.55"
/>
<path stroke="#56277c" vector-effect="non-scaling-stroke" d="
  M 284.67 222.55
  Q 283.28 219.06 281.01 219.01
  Q 256.89 218.47 233.30 219.03
  A 1.04 1.04 0.0 0 1 232.24 217.99
  L 232.29 132.98
  Q 232.29 132.50 231.97 132.14
  Q 230.64 130.62 230.83 128.35"
/>
<path stroke="#77459d" vector-effect="non-scaling-stroke" d="
  M 230.83 128.35
  Q 232.34 129.76 232.95 131.13
  A 2.20 2.20 0.0 0 0 234.94 132.43
  L 242.87 132.48"
/>
<path stroke="#77459d" vector-effect="non-scaling-stroke" d="
  M 242.87 132.48
  L 242.98 206.97
  A 2.19 2.18 9.3 0 0 244.47 209.04
  Q 248.64 210.45 253.50 210.50
  Q 267.89 210.65 282.37 210.30
  Q 282.95 210.29 282.93 210.87
  L 282.73 217.58
  Q 282.72 218.13 283.07 218.55
  L 286.33 222.44
  Q 286.62 222.79 286.29 223.11
  Q 286.02 223.37 286.67 223.80
  A 0.56 0.56 0.0 0 0 287.50 223.54
  Q 287.84 222.65 287.26 221.02"
/>
<path stroke="#9168b0" vector-effect="non-scaling-stroke" d="
  M 287.26 221.02
  L 287.35 205.96
  Q 287.35 205.50 286.89 205.55
  L 285.11 205.72"
/>
<path stroke="#77459d" vector-effect="non-scaling-stroke" d="
  M 285.11 205.72
  L 249.56 205.54"
/>
<path stroke="#9168b0" vector-effect="non-scaling-stroke" d="
  M 249.56 205.54
  Q 248.56 205.98 247.74 205.69
  A 0.74 0.73 9.5 0 1 247.24 205.00
  L 247.27 127.98
  Q 247.27 127.47 246.76 127.56
  L 245.46 127.79"
/>
<path stroke="#8355a5" vector-effect="non-scaling-stroke" d="
  M 245.46 127.79
  L 243.23 127.63"
/>
<path stroke="#77459d" vector-effect="non-scaling-stroke" d="
  M 243.23 127.63
  L 229.44 127.42"
/>
<path stroke="#946db2" vector-effect="non-scaling-stroke" d="
  M 243.23 127.63
  Q 242.31 130.25 242.87 132.48"
/>
<path stroke="#683f89" vector-effect="non-scaling-stroke" d="
  M 230.83 128.35
  Q 230.68 128.66 229.44 127.42"
/>
<path stroke="#a280bd" vector-effect="non-scaling-stroke" d="
  M 285.11 205.72
  Q 282.26 208.24 285.45 210.56
  Q 285.85 210.84 285.78 211.33
  C 285.42 214.11 284.60 219.21 287.26 221.02"
/>
<path stroke="#311647" vector-effect="non-scaling-stroke" d="
  M 284.67 222.55
  Q 282.99 221.42 279.75 221.44
  Q 256.21 221.65 232.28 221.69
  A 1.65 1.65 0.0 0 1 230.69 220.49
  C 230.04 218.23 230.27 216.05 230.26 213.82
  Q 230.08 176.69 230.18 139.56
  Q 230.20 134.87 229.17 130.32
  Q 229.00 129.56 227.80 129.74"
/>
<path stroke="#946db2" vector-effect="non-scaling-stroke" d="
  M 246.35 207.25
  C 244.91 206.99 243.68 205.07 243.64 203.52
  C 243.00 180.25 244.28 160.91 243.48 133.75
  Q 243.45 132.87 242.87 132.48"
/>
<path stroke="#a280bd" vector-effect="non-scaling-stroke" d="
  M 249.56 205.54
  Q 251.26 207.63 246.35 207.25"
/>
<path stroke="#ae90c5" vector-effect="non-scaling-stroke" d="
  M 246.35 207.25
  C 244.77 202.95 245.62 198.77 245.57 195.18
  Q 245.13 165.59 245.34 136.00
  C 245.36 133.18 242.26 129.88 245.46 127.79"
/>
<path stroke="#401d5b" vector-effect="non-scaling-stroke" d="
  M 121.46 148.30
  L 118.03 143.50
  Q 117.85 143.25 117.54 143.27
  Q 116.83 143.30 116.75 142.64
  A 0.65 0.65 0.0 0 0 116.17 142.07
  L 114.30 141.89
  Q 113.77 141.84 113.37 141.49
  C 111.86 140.22 108.80 140.19 106.80 139.36
  Q 106.35 139.17 105.86 139.22
  C 100.75 139.73 96.59 138.66 91.69 140.63
  A 0.54 0.54 0.0 0 0 92.00 141.66
  C 101.23 139.68 112.86 143.87 120.80 148.99
  A 0.49 0.49 0.0 0 0 121.46 148.30"
/>
</g>
<path fill="#37778a" d="
  M 136.51 53.58
  Q 137.53 50.88 140.04 49.58
  C 145.53 46.74 149.18 38.63 144.45 33.28
  Q 142.00 30.50 135.05 26.12
  C 133.57 25.19 132.01 25.28 130.47 24.47
  C 128.14 23.26 124.00 21.59 121.48 21.35
  C 117.84 21.00 114.24 19.56 111.13 19.06
  C 92.16 16.04 72.61 15.00 53.55 17.71
  Q 47.87 18.52 39.44 19.47
  C 31.41 20.38 23.06 23.84 16.23 28.87
  Q 13.81 30.66 11.11 32.31
  C 18.15 19.87 38.70 14.53 52.94 12.73
  Q 51.65 13.98 48.84 14.14
  Q 48.18 14.17 48.49 14.75
  L 48.75 15.23
  Q 48.99 15.69 49.52 15.67
  C 55.73 15.46 62.05 13.69 67.70 13.47
  Q 83.92 12.83 92.45 13.39
  Q 105.43 14.25 112.94 16.11
  C 117.18 17.16 121.41 17.49 124.91 18.67
  C 136.35 22.50 148.58 27.10 150.24 40.98
  Q 150.41 42.45 148.51 43.92
  Q 148.16 44.20 148.59 44.30
  Q 148.81 44.35 148.98 44.22
  C 152.57 41.42 154.02 37.37 152.45 32.95
  C 147.08 17.84 109.77 12.48 96.00 11.78
  Q 92.93 11.63 87.41 11.09
  C 81.38 10.52 75.62 11.52 70.24 11.73
  Q 67.51 11.83 63.34 12.41
  Q 59.52 12.93 55.92 12.39
  C 72.17 9.70 88.37 9.83 104.71 11.58
  C 118.83 13.10 149.31 19.05 153.78 33.95
  C 156.61 43.38 143.40 50.95 136.51 53.58
  Z"
/>
<path fill="#1e4552" d="
  M 52.94 12.73
  Q 54.07 11.94 55.92 12.39
  Q 59.52 12.93 63.34 12.41
  Q 67.51 11.83 70.24 11.73
  C 75.62 11.52 81.38 10.52 87.41 11.09
  Q 92.93 11.63 96.00 11.78
  C 109.77 12.48 147.08 17.84 152.45 32.95
  C 154.02 37.37 152.57 41.42 148.98 44.22
  Q 148.81 44.35 148.59 44.30
  Q 148.16 44.20 148.51 43.92
  Q 150.41 42.45 150.24 40.98
  C 148.58 27.10 136.35 22.50 124.91 18.67
  C 121.41 17.49 117.18 17.16 112.94 16.11
  Q 105.43 14.25 92.45 13.39
  Q 83.92 12.83 67.70 13.47
  C 62.05 13.69 55.73 15.46 49.52 15.67
  Q 48.99 15.69 48.75 15.23
  L 48.49 14.75
  Q 48.18 14.17 48.84 14.14
  Q 51.65 13.98 52.94 12.73
  Z"
/>
<path fill="#4193a7" d="
  M 136.51 53.58
  Q 126.41 57.55 110.73 60.21
  Q 100.60 61.93 94.60 61.75
  Q 94.11 61.73 93.75 62.08
  Q 93.57 62.25 93.38 62.38
  Q 93.21 62.49 92.97 62.49
  Q 81.67 62.51 70.38 62.50
  C 68.91 62.50 67.78 61.64 66.43 61.71
  Q 61.89 61.94 57.48 61.11
  C 45.08 58.77 5.81 52.71 11.11 32.31
  Q 13.81 30.66 16.23 28.87
  C 23.06 23.84 31.41 20.38 39.44 19.47
  Q 47.87 18.52 53.55 17.71
  C 72.61 15.00 92.16 16.04 111.13 19.06
  C 114.24 19.56 117.84 21.00 121.48 21.35
  C 124.00 21.59 128.14 23.26 130.47 24.47
  C 132.01 25.28 133.57 25.19 135.05 26.12
  Q 142.00 30.50 144.45 33.28
  C 149.18 38.63 145.53 46.74 140.04 49.58
  Q 137.53 50.88 136.51 53.58
  Z"
/>
<path fill="#37778a" d="
  M 146.29 89.98
  C 143.98 87.43 148.00 86.62 147.78 84.01
  A 1.33 1.28 -33.1 0 1 147.96 83.22
  C 150.47 79.02 149.12 70.01 148.58 65.31
  A 0.76 0.75 72.8 0 0 147.48 64.73
  C 136.01 70.73 124.49 75.53 112.38 77.45
  C 110.86 77.69 109.65 78.43 108.02 78.52
  C 101.28 78.86 94.77 80.52 88.00 80.54
  C 78.86 80.58 69.11 81.40 60.10 80.03
  C 54.00 79.11 47.83 78.80 42.01 77.41
  Q 37.27 76.29 32.54 75.17
  C 29.14 74.37 25.40 72.59 21.62 71.77
  C 18.84 71.17 14.12 69.36 12.26 67.14
  A 0.65 0.65 0.0 0 0 11.11 67.49
  Q 11.06 68.01 10.76 68.53
  L 10.58 59.05
  A 0.77 0.76 17.6 0 1 11.80 58.42
  C 21.74 65.76 36.83 69.82 48.85 71.83
  C 75.45 76.30 104.16 75.83 130.26 68.55
  Q 141.33 65.46 151.49 59.24
  Q 152.82 58.43 153.58 59.78
  C 155.19 62.66 153.61 69.22 153.79 72.82
  C 154.20 80.76 153.54 85.78 146.29 89.98
  Z
  M 19.00 66.38
  Q 19.18 66.69 19.51 66.75
  C 22.56 67.35 24.81 68.89 27.50 69.49
  C 31.41 70.35 35.34 72.18 38.92 72.88
  C 55.59 76.16 72.66 78.06 89.68 77.27
  Q 89.99 77.25 90.14 76.98
  Q 90.23 76.81 90.33 76.68
  Q 90.58 76.36 90.18 76.36
  Q 68.16 75.99 46.47 72.22
  C 34.46 70.14 22.45 66.39 12.36 59.94
  Q 11.75 59.55 11.75 60.27
  L 11.75 62.74
  Q 11.75 63.20 12.21 63.25
  C 13.62 63.41 14.51 64.49 15.41 64.87
  Q 16.83 65.47 18.34 65.88
  Q 18.77 66.00 19.00 66.38
  Z
  M 153.12 76.05
  C 152.79 70.79 152.90 66.69 153.31 61.76
  Q 153.52 59.22 151.13 59.97
  A 1.69 1.69 0.0 0 0 150.38 62.71
  L 150.96 63.36
  Q 151.29 63.73 151.34 64.24
  Q 152.18 74.23 150.27 84.04
  A 0.46 0.46 0.0 0 0 151.12 84.35
  Q 153.40 80.41 153.12 76.05
  Z"
/>
<path fill="#1e4552" d="
  M 18.34 65.88
  Q 16.83 65.47 15.41 64.87
  C 14.51 64.49 13.62 63.41 12.21 63.25
  Q 11.75 63.20 11.75 62.74
  L 11.75 60.27
  Q 11.75 59.55 12.36 59.94
  C 22.45 66.39 34.46 70.14 46.47 72.22
  Q 68.16 75.99 90.18 76.36
  Q 90.58 76.36 90.33 76.68
  Q 90.23 76.81 90.14 76.98
  Q 89.99 77.25 89.68 77.27
  C 72.66 78.06 55.59 76.16 38.92 72.88
  C 35.34 72.18 31.41 70.35 27.50 69.49
  C 24.81 68.89 22.56 67.35 19.51 66.75
  Q 19.18 66.69 19.00 66.38
  Q 18.77 66.00 18.34 65.88
  Z"
/>
<path fill="#1e4552" d="
  M 153.12 76.05
  Q 153.40 80.41 151.12 84.35
  A 0.46 0.46 0.0 0 1 150.27 84.04
  Q 152.18 74.23 151.34 64.24
  Q 151.29 63.73 150.96 63.36
  L 150.38 62.71
  A 1.69 1.69 0.0 0 1 151.13 59.97
  Q 153.52 59.22 153.31 61.76
  C 152.90 66.69 152.79 70.79 153.12 76.05
  Z"
/>
<path fill="#4193a7" d="
  M 146.29 89.98
  C 135.93 97.34 121.82 100.62 109.42 102.34
  Q 92.08 104.76 74.57 103.94
  C 69.55 103.71 64.80 104.03 62.25 103.48
  C 59.07 102.79 55.94 102.79 53.63 102.29
  Q 48.23 101.12 42.83 99.96
  C 32.47 97.73 17.21 93.04 11.86 83.54
  C 9.83 79.93 10.75 72.66 10.76 68.53
  Q 11.06 68.01 11.11 67.49
  A 0.65 0.65 0.0 0 1 12.26 67.14
  C 14.12 69.36 18.84 71.17 21.62 71.77
  C 25.40 72.59 29.14 74.37 32.54 75.17
  Q 37.27 76.29 42.01 77.41
  C 47.83 78.80 54.00 79.11 60.10 80.03
  C 69.11 81.40 78.86 80.58 88.00 80.54
  C 94.77 80.52 101.28 78.86 108.02 78.52
  C 109.65 78.43 110.86 77.69 112.38 77.45
  C 124.49 75.53 136.01 70.73 147.48 64.73
  A 0.76 0.75 72.8 0 1 148.58 65.31
  C 149.12 70.01 150.47 79.02 147.96 83.22
  A 1.33 1.28 -33.1 0 0 147.78 84.01
  C 148.00 86.62 143.98 87.43 146.29 89.98
  Z"
/>
<path fill="#37778a" d="
  M 71.33 116.38
  C 65.29 117.52 59.74 116.13 54.52 115.47
  C 40.38 113.70 24.93 109.49 12.55 102.25
  Q 11.84 101.84 11.89 102.65
  L 12.10 106.01
  Q 12.14 106.52 12.60 106.73
  Q 19.42 109.88 26.76 111.49
  C 27.89 111.74 29.36 112.86 30.84 113.24
  Q 42.74 116.30 54.89 118.03
  C 59.15 118.63 63.87 118.61 68.39 118.92
  C 76.60 119.49 83.86 119.36 91.64 119.14
  C 100.05 118.90 108.93 117.11 117.67 116.16
  C 119.03 116.01 120.77 114.78 121.76 114.78
  Q 124.47 114.77 126.96 113.87
  C 130.19 112.70 133.32 112.64 136.25 110.54
  Q 136.64 110.26 137.13 110.26
  Q 138.08 110.27 138.77 109.48
  A 0.42 0.42 0.0 0 0 138.33 108.80
  Q 134.69 109.85 130.94 111.20
  Q 128.44 112.09 126.99 111.30
  Q 138.84 108.46 149.48 102.37
  Q 150.45 103.46 148.40 103.88
  Q 147.78 104.01 148.24 104.43
  C 148.78 104.94 149.01 105.31 149.11 106.09
  C 149.94 112.29 151.89 125.86 145.36 129.70
  Q 145.08 129.94 144.77 129.97
  A 0.42 0.42 0.0 0 1 144.35 129.36
  Q 147.11 123.66 146.96 121.76
  Q 146.47 115.29 146.94 109.25
  A 0.86 0.86 0.0 0 0 145.61 108.46
  Q 138.76 112.91 130.85 114.97
  C 127.10 115.95 123.93 118.12 119.45 118.00
  Q 118.95 117.98 118.51 118.20
  C 113.64 120.55 107.53 120.29 101.53 121.19
  C 99.64 121.48 96.90 122.57 94.41 122.41
  C 82.43 121.62 70.21 122.56 58.13 122.16
  Q 57.79 122.15 57.61 121.86
  Q 57.50 121.68 57.34 121.55
  Q 57.13 121.37 56.71 121.33
  Q 43.01 120.10 29.86 116.31
  C 24.55 114.78 19.11 112.12 13.70 109.95
  Q 13.21 109.75 12.99 109.26
  Q 12.60 108.38 11.72 108.00
  Q 11.25 107.80 11.27 108.31
  Q 11.30 109.36 10.73 109.26
  L 10.80 101.13
  A 0.91 0.90 21.3 0 1 12.31 100.47
  C 12.86 100.97 13.04 101.59 13.78 102.00
  Q 26.91 109.19 39.20 111.79
  Q 40.58 112.08 41.41 112.36
  C 45.80 113.82 51.36 114.11 55.99 115.02
  Q 56.68 115.16 57.55 114.93
  Q 58.01 114.81 58.45 115.00
  C 61.20 116.13 64.57 115.81 66.92 116.11
  Q 69.04 116.38 71.33 116.38
  Z"
/>
<path fill="#1e4552" d="
  M 154.07 103.26
  Q 154.20 102.53 153.41 103.28
  A 1.10 1.08 68.9 0 0 153.08 104.04
  Q 152.88 111.62 153.02 119.21
  C 153.06 121.85 152.14 123.67 151.12 126.00
  Q 150.92 126.46 150.56 126.81
  L 146.90 130.50
  A 0.83 0.82 -32.1 0 1 145.53 130.19
  L 145.36 129.70
  C 151.89 125.86 149.94 112.29 149.11 106.09
  C 149.01 105.31 148.78 104.94 148.24 104.43
  Q 147.78 104.01 148.40 103.88
  Q 150.45 103.46 149.48 102.37
  L 152.86 100.34
  Q 153.39 100.03 153.71 100.55
  Q 154.52 101.84 154.07 103.26
  Z"
/>
<path fill="#1e4552" d="
  M 71.33 116.38
  C 90.13 116.83 108.59 116.19 126.99 111.30
  Q 128.44 112.09 130.94 111.20
  Q 134.69 109.85 138.33 108.80
  A 0.42 0.42 0.0 0 1 138.77 109.48
  Q 138.08 110.27 137.13 110.26
  Q 136.64 110.26 136.25 110.54
  C 133.32 112.64 130.19 112.70 126.96 113.87
  Q 124.47 114.77 121.76 114.78
  C 120.77 114.78 119.03 116.01 117.67 116.16
  C 108.93 117.11 100.05 118.90 91.64 119.14
  C 83.86 119.36 76.60 119.49 68.39 118.92
  C 63.87 118.61 59.15 118.63 54.89 118.03
  Q 42.74 116.30 30.84 113.24
  C 29.36 112.86 27.89 111.74 26.76 111.49
  Q 19.42 109.88 12.60 106.73
  Q 12.14 106.52 12.10 106.01
  L 11.89 102.65
  Q 11.84 101.84 12.55 102.25
  C 24.93 109.49 40.38 113.70 54.52 115.47
  C 59.74 116.13 65.29 117.52 71.33 116.38
  Z"
/>
<path fill="#4193a7" d="
  M 154.07 103.26
  C 153.72 109.31 154.95 119.60 152.63 124.85
  C 149.49 131.96 137.17 137.39 130.75 139.26
  Q 127.25 140.28 126.10 140.98
  Q 125.18 141.14 123.65 140.66
  Q 123.78 136.41 123.93 132.06
  C 123.94 131.74 123.74 131.39 123.51 131.22
  Q 122.70 129.88 121.55 130.33
  C 116.48 126.85 107.05 125.29 101.66 125.02
  L 91.50 124.95
  Q 82.96 125.47 75.84 130.24
  C 74.25 131.31 71.68 133.34 70.80 135.09
  A 1.44 1.41 -89.1 0 1 70.14 135.74
  Q 68.46 136.53 69.05 138.81
  Q 68.28 138.45 67.51 141.26
  Q 66.81 140.71 66.23 141.30
  Q 65.72 141.59 65.41 141.32
  Q 64.97 140.93 65.46 140.60
  C 67.06 139.56 67.43 138.57 67.84 136.79
  Q 68.10 135.65 69.33 135.20
  Q 69.83 135.01 69.86 134.48
  Q 69.97 132.88 71.47 132.23
  A 0.44 0.44 0.0 0 0 71.38 131.40
  Q 70.89 131.31 70.45 131.72
  C 68.49 133.53 66.03 134.50 64.47 136.40
  Q 61.52 139.98 60.38 144.85
  Q 57.96 144.48 55.43 144.27
  C 49.92 143.81 44.57 141.86 38.99 141.13
  Q 38.49 141.06 38.31 140.60
  Q 37.97 139.72 36.97 140.04
  Q 36.49 140.19 36.01 140.03
  C 27.40 137.25 16.77 133.32 11.92 125.13
  C 9.79 121.52 10.73 113.51 10.73 109.26
  Q 11.30 109.36 11.27 108.31
  Q 11.25 107.80 11.72 108.00
  Q 12.60 108.38 12.99 109.26
  Q 13.21 109.75 13.70 109.95
  C 19.11 112.12 24.55 114.78 29.86 116.31
  Q 43.01 120.10 56.71 121.33
  Q 57.13 121.37 57.34 121.55
  Q 57.50 121.68 57.61 121.86
  Q 57.79 122.15 58.13 122.16
  C 70.21 122.56 82.43 121.62 94.41 122.41
  C 96.90 122.57 99.64 121.48 101.53 121.19
  C 107.53 120.29 113.64 120.55 118.51 118.20
  Q 118.95 117.98 119.45 118.00
  C 123.93 118.12 127.10 115.95 130.85 114.97
  Q 138.76 112.91 145.61 108.46
  A 0.86 0.86 0.0 0 1 146.94 109.25
  Q 146.47 115.29 146.96 121.76
  Q 147.11 123.66 144.35 129.36
  A 0.42 0.42 0.0 0 0 144.77 129.97
  Q 145.08 129.94 145.36 129.70
  L 145.53 130.19
  A 0.83 0.82 -32.1 0 0 146.90 130.50
  L 150.56 126.81
  Q 150.92 126.46 151.12 126.00
  C 152.14 123.67 153.06 121.85 153.02 119.21
  Q 152.88 111.62 153.08 104.04
  A 1.10 1.08 68.9 0 1 153.41 103.28
  Q 154.20 102.53 154.07 103.26
  Z"
/>
<path fill="#652d90" d="
  M 138.92 177.99
  L 141.52 176.37
  C 142.11 198.93 148.17 226.93 177.23 225.22
  C 178.96 225.11 179.89 227.46 180.80 228.39
  Q 186.21 233.97 191.17 240.03
  Q 192.00 241.04 192.65 241.01
  Q 193.54 240.97 194.34 239.68
  Q 195.41 239.89 195.54 238.59
  Q 195.60 238.02 195.12 237.72
  Q 193.81 236.90 193.41 235.45
  Q 193.26 234.94 192.86 234.60
  Q 188.27 230.65 184.25 226.14
  Q 181.96 223.57 180.01 222.76
  C 173.79 220.17 166.40 222.87 160.91 217.49
  Q 159.74 216.35 158.36 215.43
  Q 157.94 215.16 157.73 214.70
  C 156.98 213.08 155.36 212.37 154.53 211.14
  C 149.27 203.35 147.19 195.67 146.62 186.33
  Q 145.91 174.83 146.52 163.31
  C 146.66 160.74 147.48 157.77 147.53 154.85
  C 147.58 151.42 149.18 147.14 151.13 144.38
  C 152.33 142.68 152.44 140.12 152.95 138.77
  Q 154.69 134.19 159.17 131.55
  A 0.43 0.43 0.0 0 0 158.96 130.75
  L 158.18 130.75
  Q 157.62 130.75 157.23 131.15
  L 152.10 136.43
  C 144.66 145.06 143.25 155.34 141.62 166.79
  C 140.61 161.96 141.64 154.04 144.05 149.85
  A 0.89 0.87 40.9 0 0 143.97 148.87
  Q 143.33 148.07 142.37 147.86
  C 144.54 141.91 147.74 134.87 152.65 130.79
  C 165.79 119.88 187.97 119.92 199.76 132.23
  C 211.52 144.51 212.51 165.32 211.87 182.00
  Q 211.19 199.72 204.31 213.67
  C 203.11 216.12 201.01 217.53 199.29 219.80
  A 0.68 0.67 40.4 0 0 199.37 220.70
  C 202.17 223.28 212.44 231.02 206.51 234.95
  C 204.01 236.61 201.70 238.56 199.27 240.29
  C 194.42 243.75 192.15 245.87 187.81 240.66
  Q 182.59 234.39 176.83 228.60
  Q 176.49 228.25 176.00 228.25
  Q 151.33 228.06 143.26 205.27
  Q 138.70 192.41 138.92 177.99
  Z
  M 205.39 230.53
  L 195.15 220.32
  Q 195.21 220.10 195.25 219.92
  A 1.03 1.00 -12.8 0 1 195.64 219.32
  Q 199.82 216.25 202.18 212.40
  C 206.86 201.78 209.27 191.68 209.14 180.01
  C 210.22 161.83 207.99 140.35 191.55 129.33
  Q 184.30 125.72 175.75 125.45
  Q 167.09 125.44 158.81 129.33
  Q 158.61 129.42 158.54 129.63
  A 0.20 0.20 0.0 0 0 158.79 129.89
  L 164.53 127.78
  A 0.52 0.52 0.0 0 1 165.23 128.29
  Q 165.20 129.31 164.51 129.71
  A 1.05 1.04 -68.0 0 0 165.32 131.62
  C 170.54 130.09 176.15 129.82 181.63 131.19
  C 187.27 132.59 191.42 134.79 195.09 139.15
  C 201.87 147.19 204.47 160.49 204.37 170.76
  Q 204.37 170.89 204.49 170.92
  Q 204.63 170.96 204.76 171.00
  Q 204.99 171.07 204.95 171.30
  C 204.31 175.10 204.81 179.06 204.48 182.49
  C 204.10 186.45 204.12 190.47 203.19 194.18
  Q 201.76 199.92 199.48 205.38
  C 198.23 208.38 195.69 211.24 194.21 214.54
  Q 194.01 214.99 193.61 215.28
  C 185.09 221.43 197.36 230.23 201.68 233.97
  A 0.97 0.97 0.0 0 0 202.54 234.17
  Q 206.61 233.22 205.39 230.53
  Z
  M 173.41 143.20
  C 183.66 142.63 187.19 150.30 188.47 159.00
  C 190.31 171.42 191.27 190.04 185.66 201.30
  Q 184.13 204.59 180.88 206.61
  Q 180.17 207.05 181.01 207.08
  C 187.27 207.32 188.82 203.10 191.14 197.96
  Q 192.36 195.26 192.95 191.74
  Q 195.80 174.67 192.91 159.26
  C 191.75 153.03 190.14 147.37 185.26 143.28
  C 180.95 139.67 173.83 137.02 170.56 143.53
  Q 170.35 143.94 170.81 143.95
  Q 172.06 143.98 173.41 143.20
  Z
  M 176.35 146.29
  C 172.50 145.79 169.96 147.89 168.00 151.20
  C 163.00 159.61 161.64 196.95 170.63 203.06
  C 178.14 208.15 184.06 201.01 185.25 194.01
  Q 188.06 177.45 185.46 158.76
  Q 184.58 152.48 180.74 148.60
  Q 178.76 146.60 176.35 146.29
  Z
  M 170.51 206.19
  Q 166.43 203.79 164.69 199.32
  C 160.11 187.56 160.77 169.13 163.30 156.02
  Q 164.48 151.67 167.20 147.88
  A 0.62 0.62 0.0 0 0 166.63 146.90
  L 163.15 147.26
  Q 162.46 147.33 162.47 148.02
  Q 162.48 149.89 161.15 151.04
  Q 160.75 151.38 160.56 151.86
  Q 157.71 159.24 157.37 167.19
  C 156.82 179.98 156.25 193.17 163.34 204.94
  C 164.39 206.69 168.88 210.88 170.57 211.53
  C 172.78 212.39 179.53 213.57 177.87 208.57
  Q 177.71 208.07 178.18 207.85
  L 178.86 207.53
  A 0.33 0.33 0.0 0 0 178.65 206.91
  Q 174.38 207.83 170.51 206.19
  Z"
/>
<path fill="#652d90" d="
  M 250.64 202.84
  L 287.98 202.93
  A 2.06 2.05 0.1 0 1 290.03 204.98
  L 290.03 223.73
  Q 290.03 225.93 287.84 225.98
  C 268.47 226.46 248.95 225.68 229.50 226.13
  C 225.44 226.23 224.76 224.05 224.75 220.50
  Q 224.75 175.37 224.75 128.74
  A 3.94 3.94 0.0 0 1 228.72 124.80
  L 247.97 124.91
  A 2.07 2.06 0.3 0 1 250.02 126.97
  L 249.99 202.20
  A 0.65 0.64 -0.0 0 0 250.64 202.84
  Z
  M 229.44 127.42
  Q 227.69 128.95 227.80 129.74
  L 227.76 222.58
  Q 227.76 223.17 228.35 223.22
  C 230.35 223.40 232.96 222.91 234.42 222.93
  Q 263.95 223.29 280.31 223.24
  Q 282.62 223.23 284.67 222.55
  Q 283.28 219.06 281.01 219.01
  Q 256.89 218.47 233.30 219.03
  A 1.04 1.04 0.0 0 1 232.24 217.99
  L 232.29 132.98
  Q 232.29 132.50 231.97 132.14
  Q 230.64 130.62 230.83 128.35
  Q 232.34 129.76 232.95 131.13
  A 2.20 2.20 0.0 0 0 234.94 132.43
  L 242.87 132.48
  L 242.98 206.97
  A 2.19 2.18 9.3 0 0 244.47 209.04
  Q 248.64 210.45 253.50 210.50
  Q 267.89 210.65 282.37 210.30
  Q 282.95 210.29 282.93 210.87
  L 282.73 217.58
  Q 282.72 218.13 283.07 218.55
  L 286.33 222.44
  Q 286.62 222.79 286.29 223.11
  Q 286.02 223.37 286.67 223.80
  A 0.56 0.56 0.0 0 0 287.50 223.54
  Q 287.84 222.65 287.26 221.02
  L 287.35 205.96
  Q 287.35 205.50 286.89 205.55
  L 285.11 205.72
  L 249.56 205.54
  Q 248.56 205.98 247.74 205.69
  A 0.74 0.73 9.5 0 1 247.24 205.00
  L 247.27 127.98
  Q 247.27 127.47 246.76 127.56
  L 245.46 127.79
  L 243.23 127.63
  L 229.44 127.42
  Z"
/>
<path fill="#652d90" d="
  M 91.50 124.95
  Q 89.60 126.43 86.78 125.92
  A 0.48 0.48 0.0 0 0 86.23 126.49
  L 86.92 130.08
  Q 87.06 130.81 87.80 130.74
  C 95.96 129.94 102.91 129.20 110.99 131.29
  Q 111.47 131.42 112.03 132.18
  Q 112.36 132.61 112.89 132.53
  Q 117.17 131.94 119.40 135.45
  Q 119.68 135.88 119.57 136.39
  C 118.72 140.41 118.61 143.74 122.19 146.05
  L 122.61 146.48
  Q 122.43 148.19 123.12 149.19
  Q 123.68 150.00 123.72 149.02
  Q 123.75 148.05 123.25 146.80
  L 123.65 140.66
  Q 125.18 141.14 126.10 140.98
  L 125.87 150.57
  A 1.09 1.08 -18.0 0 1 125.43 151.42
  L 123.99 152.46
  L 121.98 152.77
  A 0.81 0.79 -35.1 0 1 121.49 152.69
  L 110.27 146.62
  Q 109.80 146.37 109.29 146.47
  C 107.68 146.76 106.75 145.73 105.50 145.51
  C 99.90 144.53 82.52 143.71 88.55 155.45
  A 1.54 1.48 -0.0 0 0 89.24 156.11
  L 92.59 157.67
  L 91.97 160.46
  Q 85.11 158.80 84.48 152.10
  Q 84.61 148.40 86.55 145.88
  Q 86.78 145.58 86.50 145.33
  Q 84.17 143.27 82.55 145.73
  Q 79.86 149.79 80.33 154.42
  Q 80.38 154.89 80.73 155.21
  C 82.01 156.38 82.38 158.13 83.37 159.18
  Q 85.72 161.70 88.46 163.77
  Q 88.84 164.06 89.31 164.15
  Q 91.22 164.50 92.73 165.75
  Q 93.16 166.11 93.71 166.25
  Q 95.55 166.70 97.03 167.95
  Q 97.41 168.27 97.90 168.25
  C 100.90 168.13 104.40 170.65 107.28 171.63
  C 114.99 174.24 121.29 180.91 122.98 188.93
  Q 125.54 201.04 119.76 211.77
  C 119.16 212.89 117.69 213.54 118.43 215.33
  A 0.76 0.76 0.0 0 0 119.22 215.79
  L 120.79 215.57
  A 0.32 0.32 0.0 0 1 121.13 216.00
  Q 120.33 218.03 118.07 218.84
  C 113.63 217.02 110.99 219.02 107.28 219.54
  C 103.89 220.01 100.59 220.75 97.22 220.77
  Q 91.32 220.80 85.46 220.60
  C 81.89 220.48 69.00 218.17 70.17 212.62
  Q 70.28 212.12 70.16 211.62
  Q 69.42 208.50 70.03 206.14
  Q 76.88 211.89 85.01 212.99
  C 91.86 213.92 96.20 215.31 102.44 212.85
  A 0.96 0.95 56.8 0 0 102.76 211.29
  Q 101.36 209.87 102.65 208.64
  A 0.39 0.39 0.0 0 0 102.28 207.98
  C 97.76 209.23 93.56 209.61 87.23 208.63
  Q 76.31 205.84 67.28 198.94
  A 0.12 0.12 0.0 0 0 67.09 198.99
  Q 67.02 199.17 66.99 199.34
  A 0.71 0.70 32.4 0 0 67.12 199.92
  L 69.31 202.71
  Q 68.81 203.09 69.47 204.92
  L 67.52 203.14
  L 66.70 202.09
  Q 65.75 200.90 65.75 202.42
  L 65.75 217.79
  Q 65.75 218.31 66.21 218.54
  Q 83.18 227.01 102.27 224.58
  Q 109.39 224.08 115.91 220.33
  Q 115.95 220.58 115.98 220.76
  Q 116.06 221.19 116.44 220.97
  Q 125.44 215.82 127.27 205.81
  Q 129.97 193.44 125.67 181.75
  L 128.70 182.00
  C 134.29 198.70 130.69 221.01 111.00 226.00
  Q 86.77 232.12 64.27 220.75
  Q 62.87 220.05 62.85 218.68
  Q 62.72 209.81 62.76 200.93
  C 62.79 193.58 68.87 196.76 72.19 199.06
  C 80.51 204.85 94.64 209.95 104.23 204.13
  A 1.02 1.02 0.0 0 0 104.71 203.43
  Q 104.98 201.89 106.04 200.79
  Q 106.38 200.45 106.49 199.98
  C 107.99 193.62 102.72 189.39 97.13 187.54
  C 97.55 183.27 92.16 185.25 90.02 182.46
  A 1.36 1.34 -12.6 0 0 89.20 181.95
  C 86.21 181.38 77.68 178.52 76.01 175.24
  C 76.64 175.24 77.01 175.13 77.57 175.49
  Q 85.48 180.49 94.36 183.31
  C 103.60 186.25 112.72 191.28 108.74 202.73
  L 107.63 203.03
  Q 107.06 203.18 107.09 203.77
  Q 107.25 206.15 104.99 207.28
  A 0.27 0.26 28.5 0 0 105.14 207.78
  C 110.33 207.21 111.26 204.61 113.22 200.56
  C 114.99 196.90 112.87 191.94 110.55 188.71
  Q 105.71 181.95 98.34 179.88
  C 96.64 179.41 94.85 178.44 92.76 178.36
  Q 92.25 178.35 91.84 178.03
  C 89.17 175.99 85.76 174.95 83.38 173.58
  C 80.18 171.74 76.32 169.86 74.15 167.03
  C 69.39 160.82 69.57 151.33 71.45 143.93
  C 72.75 138.77 78.51 134.66 81.52 130.46
  A 0.72 0.72 0.0 0 0 80.67 129.37
  C 78.42 130.26 76.16 130.88 74.40 132.69
  Q 71.61 135.56 69.05 138.81
  Q 68.46 136.53 70.14 135.74
  A 1.44 1.41 -89.1 0 0 70.80 135.09
  C 71.68 133.34 74.25 131.31 75.84 130.24
  Q 82.96 125.47 91.50 124.95
  Z
  M 121.46 148.30
  L 118.03 143.50
  Q 117.85 143.25 117.54 143.27
  Q 116.83 143.30 116.75 142.64
  A 0.65 0.65 0.0 0 0 116.17 142.07
  L 114.30 141.89
  Q 113.77 141.84 113.37 141.49
  C 111.86 140.22 108.80 140.19 106.80 139.36
  Q 106.35 139.17 105.86 139.22
  C 100.75 139.73 96.59 138.66 91.69 140.63
  A 0.54 0.54 0.0 0 0 92.00 141.66
  C 101.23 139.68 112.86 143.87 120.80 148.99
  A 0.49 0.49 0.0 0 0 121.46 148.30
  Z"
/>
<path fill="#885daa" d="
  M 91.50 124.95
  L 101.66 125.02
  L 109.23 126.38
  Q 107.84 126.45 108.04 126.95
  C 108.96 129.22 113.96 130.61 116.12 131.24
  Q 116.65 131.40 117.06 131.76
  L 119.68 134.06
  Q 120.07 134.40 120.14 134.90
  C 120.54 137.58 119.99 140.44 120.86 142.84
  Q 121.45 144.47 122.19 146.05
  C 118.61 143.74 118.72 140.41 119.57 136.39
  Q 119.68 135.88 119.40 135.45
  Q 117.17 131.94 112.89 132.53
  Q 112.36 132.61 112.03 132.18
  Q 111.47 131.42 110.99 131.29
  C 102.91 129.20 95.96 129.94 87.80 130.74
  Q 87.06 130.81 86.92 130.08
  L 86.23 126.49
  A 0.48 0.48 0.0 0 1 86.78 125.92
  Q 89.60 126.43 91.50 124.95
  Z"
/>
<path fill="#652d90" d="
  M 101.66 125.02
  C 107.05 125.29 116.48 126.85 121.55 130.33
  L 109.23 126.38
  L 101.66 125.02
  Z"
/>
<path fill="#885daa" d="
  M 175.75 125.45
  Q 175.15 127.31 175.78 128.34
  Q 176.03 128.74 176.49 128.62
  C 179.09 127.92 187.00 131.32 189.40 132.39
  Q 189.50 132.43 189.50 132.54
  L 189.50 133.10
  Q 189.50 133.43 189.78 133.60
  L 193.25 135.68
  Q 193.66 135.93 193.94 136.32
  Q 195.69 138.82 198.16 140.68
  Q 198.57 140.99 198.77 141.47
  C 199.71 143.82 200.85 145.66 201.46 148.13
  Q 202.30 151.52 203.26 154.89
  C 206.80 167.21 205.46 179.40 204.57 190.71
  Q 204.28 194.45 203.19 198.24
  C 202.25 201.46 201.55 204.73 200.58 207.96
  Q 199.60 211.28 202.18 212.40
  Q 199.82 216.25 195.64 219.32
  A 1.03 1.00 -12.8 0 0 195.25 219.92
  Q 195.21 220.10 195.15 220.32
  Q 194.85 220.19 194.51 220.27
  Q 193.99 220.38 193.89 220.91
  Q 193.64 222.32 194.52 223.12
  C 197.40 225.74 199.49 228.75 202.59 231.11
  A 2.96 2.95 59.0 0 0 204.85 231.68
  Q 205.30 231.62 205.39 230.53
  Q 206.61 233.22 202.54 234.17
  A 0.97 0.97 0.0 0 1 201.68 233.97
  C 197.36 230.23 185.09 221.43 193.61 215.28
  Q 194.01 214.99 194.21 214.54
  C 195.69 211.24 198.23 208.38 199.48 205.38
  Q 201.76 199.92 203.19 194.18
  C 204.12 190.47 204.10 186.45 204.48 182.49
  C 204.81 179.06 204.31 175.10 204.95 171.30
  Q 204.99 171.07 204.76 171.00
  Q 204.63 170.96 204.49 170.92
  Q 204.37 170.89 204.37 170.76
  C 204.47 160.49 201.87 147.19 195.09 139.15
  C 191.42 134.79 187.27 132.59 181.63 131.19
  C 176.15 129.82 170.54 130.09 165.32 131.62
  A 1.05 1.04 -68.0 0 1 164.51 129.71
  Q 165.20 129.31 165.23 128.29
  A 0.52 0.52 0.0 0 0 164.53 127.78
  L 158.79 129.89
  A 0.20 0.20 0.0 0 1 158.54 129.63
  Q 158.61 129.42 158.81 129.33
  Q 167.09 125.44 175.75 125.45
  Z"
/>
<path fill="#a07dba" d="
  M 175.75 125.45
  Q 184.30 125.72 191.55 129.33
  Q 190.32 129.49 190.14 129.88
  A 1.48 1.47 -63.1 0 0 190.75 131.75
  C 195.71 134.63 197.66 138.42 200.87 142.95
  C 202.59 145.37 202.52 147.65 203.59 150.01
  C 204.86 152.84 205.11 154.63 205.29 157.39
  Q 205.32 157.84 205.66 158.12
  Q 206.27 158.61 206.23 159.50
  Q 206.10 162.71 206.94 166.50
  Q 207.60 169.48 207.37 178.69
  Q 207.34 179.48 208.60 179.94
  Q 208.68 179.97 208.70 179.89
  L 208.81 179.57
  A 0.07 0.07 0.0 0 1 208.94 179.57
  Q 209.05 179.96 209.14 180.01
  C 209.27 191.68 206.86 201.78 202.18 212.40
  Q 199.60 211.28 200.58 207.96
  C 201.55 204.73 202.25 201.46 203.19 198.24
  Q 204.28 194.45 204.57 190.71
  C 205.46 179.40 206.80 167.21 203.26 154.89
  Q 202.30 151.52 201.46 148.13
  C 200.85 145.66 199.71 143.82 198.77 141.47
  Q 198.57 140.99 198.16 140.68
  Q 195.69 138.82 193.94 136.32
  Q 193.66 135.93 193.25 135.68
  L 189.78 133.60
  Q 189.50 133.43 189.50 133.10
  L 189.50 132.54
  Q 189.50 132.43 189.40 132.39
  C 187.00 131.32 179.09 127.92 176.49 128.62
  Q 176.03 128.74 175.78 128.34
  Q 175.15 127.31 175.75 125.45
  Z"
/>
<path fill="#a07dba" d="
  M 109.23 126.38
  L 121.55 130.33
  Q 122.03 131.22 123.51 131.22
  C 123.74 131.39 123.94 131.74 123.93 132.06
  Q 123.78 136.41 123.65 140.66
  L 123.25 146.80
  Q 122.76 146.74 122.61 146.48
  L 122.19 146.05
  Q 121.45 144.47 120.86 142.84
  C 119.99 140.44 120.54 137.58 120.14 134.90
  Q 120.07 134.40 119.68 134.06
  L 117.06 131.76
  Q 116.65 131.40 116.12 131.24
  C 113.96 130.61 108.96 129.22 108.04 126.95
  Q 107.84 126.45 109.23 126.38
  Z"
/>
<path fill="#885daa" d="
  M 243.23 127.63
  Q 242.31 130.25 242.87 132.48
  L 234.94 132.43
  A 2.20 2.20 0.0 0 1 232.95 131.13
  Q 232.34 129.76 230.83 128.35
  Q 230.68 128.66 229.44 127.42
  L 243.23 127.63
  Z"
/>
<path fill="#bca3d0" d="
  M 249.56 205.54
  Q 251.26 207.63 246.35 207.25
  C 244.77 202.95 245.62 198.77 245.57 195.18
  Q 245.13 165.59 245.34 136.00
  C 245.36 133.18 242.26 129.88 245.46 127.79
  L 246.76 127.56
  Q 247.27 127.47 247.27 127.98
  L 247.24 205.00
  A 0.74 0.73 9.5 0 0 247.74 205.69
  Q 248.56 205.98 249.56 205.54
  Z"
/>
<path fill="#472067" d="
  M 229.44 127.42
  Q 230.68 128.66 230.83 128.35
  Q 230.64 130.62 231.97 132.14
  Q 232.29 132.50 232.29 132.98
  L 232.24 217.99
  A 1.04 1.04 0.0 0 0 233.30 219.03
  Q 256.89 218.47 281.01 219.01
  Q 283.28 219.06 284.67 222.55
  Q 282.99 221.42 279.75 221.44
  Q 256.21 221.65 232.28 221.69
  A 1.65 1.65 0.0 0 1 230.69 220.49
  C 230.04 218.23 230.27 216.05 230.26 213.82
  Q 230.08 176.69 230.18 139.56
  Q 230.20 134.87 229.17 130.32
  Q 229.00 129.56 227.80 129.74
  Q 227.69 128.95 229.44 127.42
  Z"
/>
<path fill="#a07dba" d="
  M 243.23 127.63
  L 245.46 127.79
  C 242.26 129.88 245.36 133.18 245.34 136.00
  Q 245.13 165.59 245.57 195.18
  C 245.62 198.77 244.77 202.95 246.35 207.25
  C 244.91 206.99 243.68 205.07 243.64 203.52
  C 243.00 180.25 244.28 160.91 243.48 133.75
  Q 243.45 132.87 242.87 132.48
  Q 242.31 130.25 243.23 127.63
  Z"
/>
<path fill="#472067" d="
  M 108.74 202.73
  Q 108.64 203.39 109.51 203.24
  A 0.98 0.98 0.0 0 0 110.25 202.68
  C 113.51 195.73 111.43 189.32 104.93 185.58
  C 102.82 184.37 100.81 182.34 98.12 182.49
  Q 97.63 182.51 97.23 182.24
  C 94.31 180.24 91.36 180.16 88.34 178.36
  Q 88.05 178.19 87.71 178.24
  C 87.32 178.30 87.07 178.29 86.70 178.09
  Q 77.71 173.28 75.23 170.77
  C 67.51 162.96 67.34 152.38 69.22 142.36
  A 0.54 0.54 0.0 0 0 68.57 141.74
  Q 68.19 141.83 67.83 142.09
  Q 66.78 140.84 67.51 141.26
  Q 68.28 138.45 69.05 138.81
  Q 71.61 135.56 74.40 132.69
  C 76.16 130.88 78.42 130.26 80.67 129.37
  A 0.72 0.72 0.0 0 1 81.52 130.46
  C 78.51 134.66 72.75 138.77 71.45 143.93
  C 69.57 151.33 69.39 160.82 74.15 167.03
  C 76.32 169.86 80.18 171.74 83.38 173.58
  C 85.76 174.95 89.17 175.99 91.84 178.03
  Q 92.25 178.35 92.76 178.36
  C 94.85 178.44 96.64 179.41 98.34 179.88
  Q 105.71 181.95 110.55 188.71
  C 112.87 191.94 114.99 196.90 113.22 200.56
  C 111.26 204.61 110.33 207.21 105.14 207.78
  A 0.27 0.26 28.5 0 1 104.99 207.28
  Q 107.25 206.15 107.09 203.77
  Q 107.06 203.18 107.63 203.03
  L 108.74 202.73
  Z"
/>
<path fill="#bca3d0" d="
  M 191.55 129.33
  C 207.99 140.35 210.22 161.83 209.14 180.01
  Q 209.05 179.96 208.94 179.57
  A 0.07 0.07 0.0 0 0 208.81 179.57
  L 208.70 179.89
  Q 208.68 179.97 208.60 179.94
  Q 207.34 179.48 207.37 178.69
  Q 207.60 169.48 206.94 166.50
  Q 206.10 162.71 206.23 159.50
  Q 206.27 158.61 205.66 158.12
  Q 205.32 157.84 205.29 157.39
  C 205.11 154.63 204.86 152.84 203.59 150.01
  C 202.52 147.65 202.59 145.37 200.87 142.95
  C 197.66 138.42 195.71 134.63 190.75 131.75
  A 1.48 1.47 -63.1 0 1 190.14 129.88
  Q 190.32 129.49 191.55 129.33
  Z"
/>
<path fill="#1b0c26" d="
  M 227.80 129.74
  Q 229.00 129.56 229.17 130.32
  Q 230.20 134.87 230.18 139.56
  Q 230.08 176.69 230.26 213.82
  C 230.27 216.05 230.04 218.23 230.69 220.49
  A 1.65 1.65 0.0 0 0 232.28 221.69
  Q 256.21 221.65 279.75 221.44
  Q 282.99 221.42 284.67 222.55
  Q 282.62 223.23 280.31 223.24
  Q 263.95 223.29 234.42 222.93
  C 232.96 222.91 230.35 223.40 228.35 223.22
  Q 227.76 223.17 227.76 222.58
  L 227.80 129.74
  Z"
/>
<path fill="#885daa" d="
  M 121.55 130.33
  Q 122.70 129.88 123.51 131.22
  Q 122.03 131.22 121.55 130.33
  Z"
/>
<path fill="#472067" d="
  M 194.34 239.68
  Q 189.11 233.14 183.42 226.81
  Q 180.27 223.31 174.49 223.55
  Q 169.59 223.77 164.34 221.34
  C 151.53 215.40 146.02 200.52 144.82 187.50
  C 143.58 174.05 144.17 159.07 147.99 145.66
  C 148.61 143.51 150.06 141.61 151.00 139.49
  A 1.90 1.81 85.6 0 1 151.62 138.73
  Q 153.12 137.65 152.10 136.43
  L 157.23 131.15
  Q 157.62 130.75 158.18 130.75
  L 158.96 130.75
  A 0.43 0.43 0.0 0 1 159.17 131.55
  Q 154.69 134.19 152.95 138.77
  C 152.44 140.12 152.33 142.68 151.13 144.38
  C 149.18 147.14 147.58 151.42 147.53 154.85
  C 147.48 157.77 146.66 160.74 146.52 163.31
  Q 145.91 174.83 146.62 186.33
  C 147.19 195.67 149.27 203.35 154.53 211.14
  C 155.36 212.37 156.98 213.08 157.73 214.70
  Q 157.94 215.16 158.36 215.43
  Q 159.74 216.35 160.91 217.49
  C 166.40 222.87 173.79 220.17 180.01 222.76
  Q 181.96 223.57 184.25 226.14
  Q 188.27 230.65 192.86 234.60
  Q 193.26 234.94 193.41 235.45
  Q 193.81 236.90 195.12 237.72
  Q 195.60 238.02 195.54 238.59
  Q 195.41 239.89 194.34 239.68
  Z"
/>
<path fill="#37778a" d="
  M 66.23 141.30
  L 65.99 144.14
  A 0.92 0.91 -9.5 0 1 65.45 144.89
  Q 64.79 145.18 63.81 145.02
  Q 62.23 144.53 60.38 144.85
  Q 61.52 139.98 64.47 136.40
  C 66.03 134.50 68.49 133.53 70.45 131.72
  Q 70.89 131.31 71.38 131.40
  A 0.44 0.44 0.0 0 1 71.47 132.23
  Q 69.97 132.88 69.86 134.48
  Q 69.83 135.01 69.33 135.20
  Q 68.10 135.65 67.84 136.79
  C 67.43 138.57 67.06 139.56 65.46 140.60
  Q 64.97 140.93 65.41 141.32
  Q 65.72 141.59 66.23 141.30
  Z"
/>
<path fill="#885daa" d="
  M 242.87 132.48
  Q 243.45 132.87 243.48 133.75
  C 244.28 160.91 243.00 180.25 243.64 203.52
  C 243.68 205.07 244.91 206.99 246.35 207.25
  Q 251.26 207.63 249.56 205.54
  L 285.11 205.72
  Q 282.26 208.24 285.45 210.56
  Q 285.85 210.84 285.78 211.33
  C 285.42 214.11 284.60 219.21 287.26 221.02
  Q 287.84 222.65 287.50 223.54
  A 0.56 0.56 0.0 0 1 286.67 223.80
  Q 286.02 223.37 286.29 223.11
  Q 286.62 222.79 286.33 222.44
  L 283.07 218.55
  Q 282.72 218.13 282.73 217.58
  L 282.93 210.87
  Q 282.95 210.29 282.37 210.30
  Q 267.89 210.65 253.50 210.50
  Q 248.64 210.45 244.47 209.04
  A 2.19 2.18 9.3 0 1 242.98 206.97
  L 242.87 132.48
  Z"
/>
<path fill="#1b0c26" d="
  M 152.10 136.43
  Q 153.12 137.65 151.62 138.73
  A 1.90 1.81 85.6 0 0 151.00 139.49
  C 150.06 141.61 148.61 143.51 147.99 145.66
  C 144.17 159.07 143.58 174.05 144.82 187.50
  C 146.02 200.52 151.53 215.40 164.34 221.34
  Q 169.59 223.77 174.49 223.55
  Q 180.27 223.31 183.42 226.81
  Q 189.11 233.14 194.34 239.68
  Q 193.54 240.97 192.65 241.01
  Q 192.00 241.04 191.17 240.03
  Q 186.21 233.97 180.80 228.39
  C 179.89 227.46 178.96 225.11 177.23 225.22
  C 148.17 226.93 142.11 198.93 141.52 176.37
  L 141.62 166.79
  C 143.25 155.34 144.66 145.06 152.10 136.43
  Z"
/>
<path fill="#1b0c26" d="
  M 118.03 143.50
  L 121.46 148.30
  A 0.49 0.49 0.0 0 1 120.80 148.99
  C 112.86 143.87 101.23 139.68 92.00 141.66
  A 0.54 0.54 0.0 0 1 91.69 140.63
  C 96.59 138.66 100.75 139.73 105.86 139.22
  Q 106.35 139.17 106.80 139.36
  C 108.80 140.19 111.86 140.22 113.37 141.49
  Q 113.77 141.84 114.30 141.89
  L 116.17 142.07
  A 0.65 0.65 0.0 0 1 116.75 142.64
  Q 116.83 143.30 117.54 143.27
  Q 117.85 143.25 118.03 143.50
  Z"
/>
<path fill="#472067" d="
  M 185.66 201.30
  Q 186.12 202.95 187.36 201.10
  Q 187.73 200.56 188.02 199.74
  C 192.53 186.95 192.57 174.89 191.20 160.84
  C 190.39 152.42 187.91 144.43 179.27 141.89
  C 177.55 141.39 173.85 141.15 173.41 143.20
  Q 172.06 143.98 170.81 143.95
  Q 170.35 143.94 170.56 143.53
  C 173.83 137.02 180.95 139.67 185.26 143.28
  C 190.14 147.37 191.75 153.03 192.91 159.26
  Q 195.80 174.67 192.95 191.74
  Q 192.36 195.26 191.14 197.96
  C 188.82 203.10 187.27 207.32 181.01 207.08
  Q 180.17 207.05 180.88 206.61
  Q 184.13 204.59 185.66 201.30
  Z"
/>
<path fill="#652d90" d="
  M 67.51 141.26
  Q 66.78 140.84 67.83 142.09
  Q 62.69 156.18 69.73 168.99
  C 70.33 170.07 71.35 170.45 71.96 171.63
  Q 72.19 172.06 72.62 172.28
  Q 74.55 173.28 75.85 174.88
  Q 72.65 175.64 72.03 172.82
  Q 71.91 172.31 71.43 172.08
  L 70.84 171.79
  Q 70.47 171.62 70.23 171.28
  C 67.72 167.64 65.79 164.46 64.88 159.53
  Q 65.43 157.90 62.82 157.49
  Q 62.47 150.85 63.81 145.02
  Q 64.79 145.18 65.45 144.89
  A 0.92 0.91 -9.5 0 0 65.99 144.14
  L 66.23 141.30
  Q 66.81 140.71 67.51 141.26
  Z"
/>
<path fill="#1b0c26" d="
  M 185.66 201.30
  C 191.27 190.04 190.31 171.42 188.47 159.00
  C 187.19 150.30 183.66 142.63 173.41 143.20
  C 173.85 141.15 177.55 141.39 179.27 141.89
  C 187.91 144.43 190.39 152.42 191.20 160.84
  C 192.57 174.89 192.53 186.95 188.02 199.74
  Q 187.73 200.56 187.36 201.10
  Q 186.12 202.95 185.66 201.30
  Z"
/>
<path fill="#1b0c26" d="
  M 108.74 202.73
  C 112.72 191.28 103.60 186.25 94.36 183.31
  Q 85.48 180.49 77.57 175.49
  C 77.01 175.13 76.64 175.24 76.01 175.24
  Q 75.74 174.95 75.85 174.88
  Q 74.55 173.28 72.62 172.28
  Q 72.19 172.06 71.96 171.63
  C 71.35 170.45 70.33 170.07 69.73 168.99
  Q 62.69 156.18 67.83 142.09
  Q 68.19 141.83 68.57 141.74
  A 0.54 0.54 0.0 0 1 69.22 142.36
  C 67.34 152.38 67.51 162.96 75.23 170.77
  Q 77.71 173.28 86.70 178.09
  C 87.07 178.29 87.32 178.30 87.71 178.24
  Q 88.05 178.19 88.34 178.36
  C 91.36 180.16 94.31 180.24 97.23 182.24
  Q 97.63 182.51 98.12 182.49
  C 100.81 182.34 102.82 184.37 104.93 185.58
  C 111.43 189.32 113.51 195.73 110.25 202.68
  A 0.98 0.98 0.0 0 1 109.51 203.24
  Q 108.64 203.39 108.74 202.73
  Z"
/>
<path fill="#37778a" d="
  M 62.82 157.49
  Q 65.43 157.90 64.88 159.53
  Q 64.69 159.13 63.92 159.28
  Q 63.91 158.73 62.99 158.61
  C 45.54 156.44 28.12 153.24 12.80 144.13
  Q 12.05 143.69 11.94 144.54
  L 11.78 145.74
  Q 11.70 146.32 12.23 146.57
  Q 16.97 148.87 21.77 151.05
  C 26.22 153.08 31.21 153.97 36.01 155.53
  C 40.10 156.87 44.14 156.93 48.34 157.82
  C 53.34 158.88 60.30 157.66 62.46 163.80
  C 64.58 169.81 65.60 172.54 70.14 176.17
  Q 70.52 176.47 70.61 176.93
  Q 70.74 177.62 71.39 177.69
  Q 71.90 177.75 72.33 178.05
  Q 78.95 182.79 86.88 184.59
  Q 87.38 184.71 87.38 185.23
  Q 87.37 187.20 90.50 186.88
  Q 87.50 187.17 84.59 186.18
  C 81.04 184.97 78.84 186.02 75.30 183.76
  Q 73.25 182.46 71.04 181.46
  C 66.12 179.26 61.17 173.46 59.76 168.22
  Q 59.38 166.81 57.85 163.85
  Q 57.62 163.41 57.14 163.30
  C 47.39 161.05 36.95 159.70 25.75 156.74
  C 23.64 156.19 21.02 154.39 18.20 153.46
  Q 14.48 152.24 11.03 149.83
  L 10.81 142.87
  A 0.76 0.76 0.0 0 1 12.11 142.32
  C 15.19 145.50 23.55 148.89 27.76 150.28
  Q 44.72 155.88 62.82 157.49
  Z"
/>
<path fill="#1e4552" d="
  M 63.92 159.28
  C 64.22 164.58 66.24 167.84 69.43 172.51
  Q 69.68 172.87 70.09 173.04
  C 71.46 173.61 72.08 175.79 73.47 176.89
  Q 73.68 177.06 73.81 176.83
  L 74.19 176.20
  A 0.38 0.38 0.0 0 1 74.81 176.15
  C 75.89 177.44 76.70 178.41 78.32 179.10
  C 80.87 180.17 85.67 183.06 88.24 183.04
  A 0.98 0.95 -17.1 0 1 89.06 183.46
  Q 90.36 185.39 92.64 184.98
  Q 93.19 184.89 93.61 185.27
  Q 94.36 185.98 95.36 186.11
  A 0.40 0.40 0.0 0 1 95.31 186.90
  L 90.50 186.88
  Q 87.37 187.20 87.38 185.23
  Q 87.38 184.71 86.88 184.59
  Q 78.95 182.79 72.33 178.05
  Q 71.90 177.75 71.39 177.69
  Q 70.74 177.62 70.61 176.93
  Q 70.52 176.47 70.14 176.17
  C 65.60 172.54 64.58 169.81 62.46 163.80
  C 60.30 157.66 53.34 158.88 48.34 157.82
  C 44.14 156.93 40.10 156.87 36.01 155.53
  C 31.21 153.97 26.22 153.08 21.77 151.05
  Q 16.97 148.87 12.23 146.57
  Q 11.70 146.32 11.78 145.74
  L 11.94 144.54
  Q 12.05 143.69 12.80 144.13
  C 28.12 153.24 45.54 156.44 62.99 158.61
  Q 63.91 158.73 63.92 159.28
  Z"
/>
<path fill="#885daa" d="
  M 84.48 152.10
  Q 84.17 150.79 83.46 150.69
  A 0.67 0.67 0.0 0 0 82.71 151.21
  Q 81.80 155.72 84.89 158.92
  C 86.20 160.28 90.28 162.99 91.97 163.59
  C 98.51 165.93 105.89 168.10 111.76 171.86
  C 115.90 174.52 118.80 175.79 121.75 180.72
  C 122.40 181.81 122.23 182.98 123.45 183.90
  Q 123.80 184.16 123.93 184.58
  Q 127.00 194.32 125.41 204.49
  A 0.92 0.89 27.4 0 0 125.67 205.27
  Q 126.22 205.84 127.27 205.81
  Q 125.44 215.82 116.44 220.97
  Q 116.06 221.19 115.98 220.76
  Q 115.95 220.58 115.91 220.33
  L 118.07 218.84
  Q 120.33 218.03 121.13 216.00
  A 0.32 0.32 0.0 0 0 120.79 215.57
  L 119.22 215.79
  A 0.76 0.76 0.0 0 1 118.43 215.33
  C 117.69 213.54 119.16 212.89 119.76 211.77
  Q 125.54 201.04 122.98 188.93
  C 121.29 180.91 114.99 174.24 107.28 171.63
  C 104.40 170.65 100.90 168.13 97.90 168.25
  Q 97.41 168.27 97.03 167.95
  Q 95.55 166.70 93.71 166.25
  Q 93.16 166.11 92.73 165.75
  Q 91.22 164.50 89.31 164.15
  Q 88.84 164.06 88.46 163.77
  Q 85.72 161.70 83.37 159.18
  C 82.38 158.13 82.01 156.38 80.73 155.21
  Q 80.38 154.89 80.33 154.42
  Q 79.86 149.79 82.55 145.73
  Q 84.17 143.27 86.50 145.33
  Q 86.78 145.58 86.55 145.88
  Q 84.61 148.40 84.48 152.10
  Z"
/>
<path fill="#ffffff" d="
  M 123.99 152.46
  Q 123.82 153.76 124.52 154.08
  Q 123.57 154.33 123.83 154.48
  L 115.69 155.51
  C 108.50 156.87 101.45 157.33 94.16 158.16
  C 93.47 158.24 93.15 157.98 92.59 157.67
  L 89.24 156.11
  A 1.54 1.48 -0.0 0 1 88.55 155.45
  C 82.52 143.71 99.90 144.53 105.50 145.51
  C 106.75 145.73 107.68 146.76 109.29 146.47
  Q 109.80 146.37 110.27 146.62
  L 121.49 152.69
  A 0.81 0.79 -35.1 0 0 121.98 152.77
  L 123.99 152.46
  Z"
/>
<path fill="#885daa" d="
  M 122.61 146.48
  Q 122.76 146.74 123.25 146.80
  Q 123.75 148.05 123.72 149.02
  Q 123.68 150.00 123.12 149.19
  Q 122.43 148.19 122.61 146.48
  Z"
/>
<path fill="#885daa" d="
  M 163.30 156.02
  Q 162.97 155.42 162.27 155.20
  Q 161.79 155.05 161.57 155.51
  Q 160.32 158.12 160.21 161.02
  C 160.18 162.03 159.30 162.54 159.32 163.69
  Q 159.54 173.94 159.26 184.20
  Q 159.19 186.87 159.86 189.72
  C 161.64 197.35 162.16 204.15 169.53 208.41
  Q 169.99 208.68 170.26 208.22
  Q 170.79 207.34 170.51 206.19
  Q 174.38 207.83 178.65 206.91
  A 0.33 0.33 0.0 0 1 178.86 207.53
  L 178.18 207.85
  Q 177.71 208.07 177.87 208.57
  C 179.53 213.57 172.78 212.39 170.57 211.53
  C 168.88 210.88 164.39 206.69 163.34 204.94
  C 156.25 193.17 156.82 179.98 157.37 167.19
  Q 157.71 159.24 160.56 151.86
  Q 160.75 151.38 161.15 151.04
  Q 162.48 149.89 162.47 148.02
  Q 162.46 147.33 163.15 147.26
  L 166.63 146.90
  A 0.62 0.62 0.0 0 1 167.20 147.88
  Q 164.48 151.67 163.30 156.02
  Z"
/>
<path fill="#4193a7" d="
  M 142.37 147.86
  Q 143.33 148.07 143.97 148.87
  A 0.89 0.87 40.9 0 1 144.05 149.85
  C 141.64 154.04 140.61 161.96 141.62 166.79
  L 141.52 176.37
  L 138.92 177.99
  L 128.70 182.00
  L 125.67 181.75
  Q 124.76 180.55 124.41 179.14
  Q 122.77 174.82 118.21 172.67
  L 118.11 172.17
  Q 118.01 171.70 117.59 171.48
  L 110.39 167.75
  Q 110.03 167.33 109.30 167.02
  Q 108.61 165.79 107.08 165.99
  Q 106.54 166.07 106.13 165.72
  Q 105.14 164.87 103.84 165.00
  Q 103.38 165.05 103.02 164.74
  Q 101.15 163.09 98.69 162.93
  Q 98.21 162.90 97.85 162.59
  Q 95.20 160.32 92.30 160.99
  L 91.97 160.46
  L 92.59 157.67
  C 93.15 157.98 93.47 158.24 94.16 158.16
  C 101.45 157.33 108.50 156.87 115.69 155.51
  Q 115.30 156.74 114.03 156.48
  Q 111.97 156.06 110.55 157.37
  Q 110.20 157.70 109.72 157.72
  L 104.44 157.85
  A 0.52 0.52 0.0 0 0 104.20 157.93
  Q 102.30 159.33 100.18 158.33
  A 1.30 1.28 -40.8 0 0 99.25 158.27
  Q 96.77 159.03 94.27 158.42
  A 0.88 0.87 -63.2 0 0 93.39 158.71
  L 93.01 159.18
  Q 92.51 159.79 93.30 159.84
  Q 95.39 159.97 98.56 160.97
  Q 99.07 161.13 99.44 160.69
  A 1.11 1.09 18.4 0 1 100.24 160.30
  C 103.54 160.21 107.68 160.24 110.76 158.99
  C 112.74 158.18 115.57 158.52 117.14 158.18
  Q 126.18 156.23 135.23 153.49
  A 1.55 1.54 73.2 0 1 137.15 154.52
  Q 137.89 156.93 136.92 159.72
  C 135.21 163.03 136.19 171.06 136.53 174.32
  L 136.03 177.36
  A 0.42 0.42 0.0 0 0 136.61 177.81
  L 139.49 176.56
  A 0.85 0.84 78.4 0 0 140.00 175.78
  Q 140.01 168.42 139.99 161.04
  C 139.99 158.63 141.29 156.75 141.18 154.08
  Q 141.16 153.52 141.55 153.11
  Q 142.29 152.32 141.95 151.21
  A 0.68 0.68 0.0 0 1 142.23 150.44
  Q 143.26 149.76 142.85 148.68
  Q 142.57 147.91 142.28 148.68
  Q 142.23 148.80 142.19 148.92
  Q 142.02 149.34 141.59 149.45
  C 137.40 150.51 133.43 152.59 129.47 153.43
  Q 126.60 154.04 123.83 154.48
  Q 123.57 154.33 124.52 154.08
  Q 125.07 153.61 125.31 153.56
  Q 134.45 151.79 142.37 147.86
  Z"
/>
<path fill="#1e4552" d="
  M 136.53 174.32
  L 136.92 159.72
  Q 137.89 156.93 137.15 154.52
  A 1.55 1.54 73.2 0 0 135.23 153.49
  Q 126.18 156.23 117.14 158.18
  C 115.57 158.52 112.74 158.18 110.76 158.99
  C 107.68 160.24 103.54 160.21 100.24 160.30
  A 1.11 1.09 18.4 0 0 99.44 160.69
  Q 99.07 161.13 98.56 160.97
  Q 95.39 159.97 93.30 159.84
  Q 92.51 159.79 93.01 159.18
  L 93.39 158.71
  A 0.88 0.87 -63.2 0 1 94.27 158.42
  Q 96.77 159.03 99.25 158.27
  A 1.30 1.28 -40.8 0 1 100.18 158.33
  Q 102.30 159.33 104.20 157.93
  A 0.52 0.52 0.0 0 1 104.44 157.85
  L 109.72 157.72
  Q 110.20 157.70 110.55 157.37
  Q 111.97 156.06 114.03 156.48
  Q 115.30 156.74 115.69 155.51
  L 123.83 154.48
  Q 126.60 154.04 129.47 153.43
  C 133.43 152.59 137.40 150.51 141.59 149.45
  Q 142.02 149.34 142.19 148.92
  Q 142.23 148.80 142.28 148.68
  Q 142.57 147.91 142.85 148.68
  Q 143.26 149.76 142.23 150.44
  A 0.68 0.68 0.0 0 0 141.95 151.21
  Q 142.29 152.32 141.55 153.11
  Q 141.16 153.52 141.18 154.08
  C 141.29 156.75 139.99 158.63 139.99 161.04
  Q 140.01 168.42 140.00 175.78
  A 0.85 0.84 78.4 0 1 139.49 176.56
  L 136.61 177.81
  A 0.42 0.42 0.0 0 1 136.03 177.36
  L 136.53 174.32
  Z"
/>
<path fill="#4193a7" d="
  M 11.03 149.83
  Q 14.48 152.24 18.20 153.46
  C 21.02 154.39 23.64 156.19 25.75 156.74
  C 36.95 159.70 47.39 161.05 57.14 163.30
  Q 57.62 163.41 57.85 163.85
  Q 59.38 166.81 59.76 168.22
  C 61.17 173.46 66.12 179.26 71.04 181.46
  Q 73.25 182.46 75.30 183.76
  C 78.84 186.02 81.04 184.97 84.59 186.18
  Q 87.50 187.17 90.50 186.88
  L 95.31 186.90
  A 0.40 0.40 0.0 0 0 95.36 186.11
  Q 94.36 185.98 93.61 185.27
  Q 93.19 184.89 92.64 184.98
  Q 90.36 185.39 89.06 183.46
  A 0.98 0.95 -17.1 0 0 88.24 183.04
  C 85.67 183.06 80.87 180.17 78.32 179.10
  C 76.70 178.41 75.89 177.44 74.81 176.15
  A 0.38 0.38 0.0 0 0 74.19 176.20
  L 73.81 176.83
  Q 73.68 177.06 73.47 176.89
  C 72.08 175.79 71.46 173.61 70.09 173.04
  Q 69.68 172.87 69.43 172.51
  C 66.24 167.84 64.22 164.58 63.92 159.28
  Q 64.69 159.13 64.88 159.53
  C 65.79 164.46 67.72 167.64 70.23 171.28
  Q 70.47 171.62 70.84 171.79
  L 71.43 172.08
  Q 71.91 172.31 72.03 172.82
  Q 72.65 175.64 75.85 174.88
  Q 75.74 174.95 76.01 175.24
  C 77.68 178.52 86.21 181.38 89.20 181.95
  A 1.36 1.34 -12.6 0 1 90.02 182.46
  C 92.16 185.25 97.55 183.27 97.13 187.54
  C 83.94 188.22 69.37 188.39 56.31 185.93
  C 54.27 185.55 52.26 185.82 50.28 185.40
  C 39.27 183.08 19.33 178.40 12.57 168.21
  C 9.95 164.26 10.91 154.65 11.03 149.83
  Z"
/>
<path fill="#bca3d0" d="
  M 84.48 152.10
  Q 85.11 158.80 91.97 160.46
  L 92.30 160.99
  Q 99.20 164.02 106.36 166.45
  Q 106.71 166.57 107.66 167.14
  Q 108.63 167.72 109.30 167.02
  Q 110.03 167.33 110.39 167.75
  L 118.21 172.67
  L 124.41 179.14
  Q 124.76 180.55 125.67 181.75
  Q 129.97 193.44 127.27 205.81
  Q 126.22 205.84 125.67 205.27
  A 0.92 0.89 27.4 0 1 125.41 204.49
  Q 127.00 194.32 123.93 184.58
  Q 123.80 184.16 123.45 183.90
  C 122.23 182.98 122.40 181.81 121.75 180.72
  C 118.80 175.79 115.90 174.52 111.76 171.86
  C 105.89 168.10 98.51 165.93 91.97 163.59
  C 90.28 162.99 86.20 160.28 84.89 158.92
  Q 81.80 155.72 82.71 151.21
  A 0.67 0.67 0.0 0 1 83.46 150.69
  Q 84.17 150.79 84.48 152.10
  Z"
/>
<path fill="#bca3d0" d="
  M 163.30 156.02
  C 160.77 169.13 160.11 187.56 164.69 199.32
  Q 166.43 203.79 170.51 206.19
  Q 170.79 207.34 170.26 208.22
  Q 169.99 208.68 169.53 208.41
  C 162.16 204.15 161.64 197.35 159.86 189.72
  Q 159.19 186.87 159.26 184.20
  Q 159.54 173.94 159.32 163.69
  C 159.30 162.54 160.18 162.03 160.21 161.02
  Q 160.32 158.12 161.57 155.51
  Q 161.79 155.05 162.27 155.20
  Q 162.97 155.42 163.30 156.02
  Z"
/>
<path fill="#37778a" d="
  M 136.92 159.72
  L 136.53 174.32
  C 136.19 171.06 135.21 163.03 136.92 159.72
  Z"
/>
<path fill="#652d90" d="
  M 109.30 167.02
  Q 108.63 167.72 107.66 167.14
  Q 106.71 166.57 106.36 166.45
  Q 99.20 164.02 92.30 160.99
  Q 95.20 160.32 97.85 162.59
  Q 98.21 162.90 98.69 162.93
  Q 101.15 163.09 103.02 164.74
  Q 103.38 165.05 103.84 165.00
  Q 105.14 164.87 106.13 165.72
  Q 106.54 166.07 107.08 165.99
  Q 108.61 165.79 109.30 167.02
  Z"
/>
<path fill="#652d90" d="
  M 110.39 167.75
  L 117.59 171.48
  Q 118.01 171.70 118.11 172.17
  L 118.21 172.67
  L 110.39 167.75
  Z"
/>
<path fill="#885daa" d="
  M 118.21 172.67
  Q 122.77 174.82 124.41 179.14
  L 118.21 172.67
  Z"
/>
<path fill="#a07dba" d="
  M 87.23 208.63
  Q 87.16 209.80 85.94 210.51
  Q 85.51 210.77 85.03 210.59
  C 82.38 209.58 79.87 209.50 77.46 208.01
  C 75.02 206.50 70.82 205.04 69.31 202.71
  L 67.12 199.92
  A 0.71 0.70 32.4 0 1 66.99 199.34
  Q 67.02 199.17 67.09 198.99
  A 0.12 0.12 0.0 0 1 67.28 198.94
  Q 76.31 205.84 87.23 208.63
  Z"
/>
<path fill="#1b0c26" d="
  M 67.52 203.14
  C 68.26 208.54 66.33 216.65 72.70 219.05
  Q 76.58 220.51 80.51 221.82
  C 87.25 224.07 93.35 223.47 101.00 223.48
  Q 102.37 223.48 102.27 224.58
  Q 83.18 227.01 66.21 218.54
  Q 65.75 218.31 65.75 217.79
  L 65.75 202.42
  Q 65.75 200.90 66.70 202.09
  L 67.52 203.14
  Z"
/>
<path fill="#885daa" d="
  M 69.31 202.71
  C 70.82 205.04 75.02 206.50 77.46 208.01
  C 79.87 209.50 82.38 209.58 85.03 210.59
  Q 85.51 210.77 85.94 210.51
  Q 87.16 209.80 87.23 208.63
  C 93.56 209.61 97.76 209.23 102.28 207.98
  A 0.39 0.39 0.0 0 1 102.65 208.64
  Q 101.36 209.87 102.76 211.29
  A 0.96 0.95 56.8 0 1 102.44 212.85
  C 96.20 215.31 91.86 213.92 85.01 212.99
  Q 76.88 211.89 70.03 206.14
  Q 69.78 205.18 69.47 204.92
  Q 68.81 203.09 69.31 202.71
  Z"
/>
<path fill="#472067" d="
  M 67.52 203.14
  L 69.47 204.92
  Q 69.78 205.18 70.03 206.14
  Q 69.42 208.50 70.16 211.62
  Q 70.28 212.12 70.17 212.62
  C 69.00 218.17 81.89 220.48 85.46 220.60
  Q 91.32 220.80 97.22 220.77
  C 100.59 220.75 103.89 220.01 107.28 219.54
  C 110.99 219.02 113.63 217.02 118.07 218.84
  L 115.91 220.33
  Q 109.39 224.08 102.27 224.58
  Q 102.37 223.48 101.00 223.48
  C 93.35 223.47 87.25 224.07 80.51 221.82
  Q 76.58 220.51 72.70 219.05
  C 66.33 216.65 68.26 208.54 67.52 203.14
  Z"
/>
<path fill="#bca3d0" d="
  M 287.26 221.02
  C 284.60 219.21 285.42 214.11 285.78 211.33
  Q 285.85 210.84 285.45 210.56
  Q 282.26 208.24 285.11 205.72
  L 286.89 205.55
  Q 287.35 205.50 287.35 205.96
  L 287.26 221.02
  Z"
/>
<path fill="#bca3d0" d="
  M 195.15 220.32
  L 205.39 230.53
  Q 205.30 231.62 204.85 231.68
  A 2.96 2.95 59.0 0 1 202.59 231.11
  C 199.49 228.75 197.40 225.74 194.52 223.12
  Q 193.64 222.32 193.89 220.91
  Q 193.99 220.38 194.51 220.27
  Q 194.85 220.19 195.15 220.32
  Z"
/>
</svg>
